#N canvas -11 -11 1920 1016 12;
#X obj 310 223 *~ 1;
#X obj 225 261 bng 15 250 50 0 empty empty empty 17 7 0 10 -262144
-1 -1;
#X msg 262 298 0;
#X obj 262 334 tgl 50 0 empty empty empty 17 7 0 10 -262144 -1 -1 1
1;
#X obj 178 334 tgl 15 0 empty empty empty 0 0 0 22 -262144 -1 -1 1
1;
#X obj 178 460 bng 15 250 50 0 empty empty empty 17 7 0 10 -262144
-1 -1;
#X obj 209 422 tgl 15 0 empty empty empty 17 7 0 10 -262144 -1 -1 0
1;
#X obj 246 460 bng 15 250 50 0 empty empty empty 17 7 0 10 -262144
-1 -1;
#X obj 178 496 f;
#X floatatom 178 518 5 0 0 0 - - -;
#X obj 203 496 + 0.1;
#X obj 246 496 f;
#X obj 186 384 sel 0 1;
#X msg 186 403 1;
#X msg 209 403 0;
#X msg 148 338 0;
#X msg 148 315 1;
#X obj 310 201 *~;
#X obj 112 388 bng 15 250 50 0 empty empty empty 17 7 0 10 -262144
-1 -1;
#X obj 378 384 outlet;
#X obj 246 384 spigot;
#X obj 178 437 spigot;
#X obj 148 169 tgl 32 0 empty empty empty 17 7 0 10 -232576 -1 -1 1
1;
#X obj 148 273 sel 0 1;
#X msg 112 477 5;
#X obj 112 458 loadbang;
#X msg 225 298 1;
#X floatatom 289 536 5 0 0 0 - - -;
#X obj 310 102 adc~;
#X obj 184 242 threshold~ 0.3 50 0.1 50;
#X obj 262 276 del 500;
#X obj 289 556 moses 0;
#X obj 271 496 - 0.2;
#X text 141 152 on/off;
#X text 371 365 trigger;
#X obj 178 352 metro 1000;
#X connect 0 0 29 0;
#X connect 1 0 26 0;
#X connect 1 0 30 0;
#X connect 2 0 3 0;
#X connect 3 0 19 0;
#X connect 3 0 12 0;
#X connect 3 0 20 1;
#X connect 4 0 35 0;
#X connect 5 0 8 0;
#X connect 6 0 21 1;
#X connect 7 0 11 0;
#X connect 8 0 9 0;
#X connect 8 0 10 0;
#X connect 9 0 11 0;
#X connect 9 0 27 0;
#X connect 10 0 8 1;
#X connect 11 0 8 0;
#X connect 11 0 32 0;
#X connect 12 0 13 0;
#X connect 12 1 14 0;
#X connect 13 0 6 0;
#X connect 14 0 6 0;
#X connect 15 0 4 0;
#X connect 16 0 4 0;
#X connect 17 0 0 0;
#X connect 18 0 13 0;
#X connect 20 0 7 0;
#X connect 21 0 5 0;
#X connect 22 0 23 0;
#X connect 22 0 17 1;
#X connect 23 0 15 0;
#X connect 23 1 16 0;
#X connect 24 0 11 0;
#X connect 24 0 8 0;
#X connect 25 0 24 0;
#X connect 25 0 18 0;
#X connect 26 0 3 0;
#X connect 27 0 31 0;
#X connect 28 0 17 0;
#X connect 28 1 17 0;
#X connect 29 0 1 0;
#X connect 30 0 2 0;
#X connect 31 1 0 1;
#X connect 32 0 11 1;
#X connect 35 0 21 0;
#X connect 35 0 20 0;
