#N canvas -11 -11 1920 1016 12;
#N canvas 336 95 1143 871 (subpatch) 0;
#X obj 156 284 / 60;
#X floatatom 28 74 5 0 0 0 - - -;
#X msg 156 333 48000;
#X obj 156 358 /;
#X obj 156 308 t b f;
#X obj 156 413 *;
#X floatatom 156 392 5 0 0 0 - - -;
#X obj 75 5 vradio 30 1 0 4 empty empty empty 0 -8 0 10 -228856 -1
-1 1;
#X obj 262 164 timer;
#X obj 262 144 bng 15 250 50 0 empty empty empty 17 7 0 10 -262144
-1 -1;
#X obj 294 144 bng 15 250 50 0 empty empty empty 17 7 0 10 -262144
-1 -1;
#X obj 262 61 f;
#X obj 287 61 + 1;
#X msg 267 40 0;
#X floatatom 262 83 5 0 0 0 - - -;
#X obj 5 14 bng 60 250 50 0 empty empty empty 17 7 0 10 -228856 -1
-1;
#X floatatom 308 126 5 0 0 0 - - -;
#X floatatom 262 126 5 0 0 0 - - -;
#X obj 262 104 moses 2;
#X obj 262 187 /;
#X msg 262 231 60000;
#X obj 262 255 /;
#X obj 267 18 del 2000;
#X obj 262 209 t b f;
#X obj 156 438 spigot;
#X msg 195 412 1;
#X obj 207 329 sel 0 1 2 3;
#X msg 225 354 1;
#X msg 244 354 2;
#X msg 262 354 4;
#X msg 207 354 0.5;
#X floatatom 156 462 5 0 0 0 - - -;
#X obj 207 373 t b b f;
#X floatatom 75 480 5 0 0 0 - - -;
#X obj 43 605 bng 15 250 50 0 empty empty empty 17 7 0 10 -262144 -1
-1;
#X obj 43 586 metro;
#X obj 75 498 / 48;
#X obj 43 561 tgl 16 0 empty empty empty 17 7 0 10 -232576 -1 -1 0
1;
#X msg 43 498 1;
#X obj 0 128 bng 15 250 50 0 empty empty empty 17 7 0 10 -262144 -1
-1;
#X text 1 0 TAP TEMPO;
#X obj 43 655 outlet;
#X text 73 125 (ms);
#X text 3 75 BPM;
#X floatatom 33 125 10 0 0 0 - - -;
#X text 77 12 1/2;
#X text 83 42 1;
#X text 83 72 2;
#X text 83 102 4;
#X obj 156 655 outlet;
#X connect 0 0 4 0;
#X connect 1 0 0 0;
#X connect 2 0 3 0;
#X connect 3 0 6 0;
#X connect 4 0 2 0;
#X connect 4 1 3 1;
#X connect 5 0 24 0;
#X connect 6 0 5 0;
#X connect 7 0 26 0;
#X connect 8 0 19 0;
#X connect 9 0 8 0;
#X connect 10 0 8 1;
#X connect 11 0 12 0;
#X connect 11 0 14 0;
#X connect 12 0 11 1;
#X connect 13 0 11 0;
#X connect 14 0 18 0;
#X connect 14 0 19 1;
#X connect 15 0 22 0;
#X connect 15 0 11 0;
#X connect 16 0 10 0;
#X connect 17 0 9 0;
#X connect 18 0 17 0;
#X connect 18 1 16 0;
#X connect 19 0 23 0;
#X connect 20 0 21 0;
#X connect 21 0 1 0;
#X connect 22 0 13 0;
#X connect 23 0 20 0;
#X connect 23 1 21 1;
#X connect 24 0 31 0;
#X connect 25 0 24 1;
#X connect 26 0 30 0;
#X connect 26 1 27 0;
#X connect 26 2 28 0;
#X connect 26 3 29 0;
#X connect 27 0 32 0;
#X connect 28 0 32 0;
#X connect 29 0 32 0;
#X connect 30 0 32 0;
#X connect 31 0 33 0;
#X connect 31 0 44 0;
#X connect 31 0 49 0;
#X connect 32 0 6 0;
#X connect 32 1 25 0;
#X connect 32 2 5 1;
#X connect 33 0 36 0;
#X connect 33 0 38 0;
#X connect 34 0 41 0;
#X connect 34 0 39 0;
#X connect 35 0 34 0;
#X connect 36 0 35 1;
#X connect 37 0 35 0;
#X connect 38 0 37 0;
#X coords 0 1 100 -1 110 143 1 0 0;
#X restore 35 38 graph;
