#N canvas 175 252 739 500 12;
#N canvas 950 199 742 606 (subpatch) 0;
#X msg 125 302 stop;
#X msg 102 279 open \$1.mp3 \, start;
#X obj 102 235 f;
#X obj 127 235 + 1;
#X msg 127 216 0;
#X obj 102 215 bng 15 250 50 0 empty empty empty 17 7 0 10 -262144
-1 -1;
#X floatatom 102 257 5 0 0 0 - - -;
#X obj 9 98 tgl 32 0 empty empty empty 17 7 0 10 -262144 -1 -1 0 1
;
#X obj 102 190 sel 1 0;
#X obj 102 344 writesf~ 2;
#X obj 363 300 *~;
#X obj 339 323 dac~;
#X obj 338 300 *~;
#X obj 9 16 vsl 32 64 0 2 0 0 empty empty empty 0 -9 0 10 -262144 -1
-1 3150 1;
#X obj 384 239 inlet~;
#X obj 309 236 inlet~;
#X msg 9 79;
#X obj 301 86 loadbang;
#X msg 301 110 1;
#X obj 355 167 inlet;
#X text 16 104 rec;
#X connect 0 0 9 0;
#X connect 1 0 9 0;
#X connect 2 0 3 0;
#X connect 2 0 6 0;
#X connect 3 0 2 1;
#X connect 4 0 2 0;
#X connect 5 0 2 0;
#X connect 6 0 1 0;
#X connect 7 0 8 0;
#X connect 8 0 5 0;
#X connect 8 1 0 0;
#X connect 10 0 11 1;
#X connect 12 0 11 0;
#X connect 13 0 10 1;
#X connect 13 0 12 1;
#X connect 14 0 9 1;
#X connect 14 0 10 0;
#X connect 15 0 9 0;
#X connect 15 0 12 0;
#X connect 17 0 18 0;
#X connect 18 0 13 0;
#X connect 19 0 13 0;
#X coords 0 1 100 -1 50 140 1 0 0;
#X restore 45 42 graph;
