#N canvas -11 -11 1920 1016 12;
#N canvas 420 215 1283 601 (subpatch) 0;
#X obj 236 123 osc~;
#X obj 237 188 snapshot~;
#X obj 248 154 tgl 15 0 empty empty empty 17 7 0 10 -262144 -1 -1 0
1;
#X obj 248 169 metro 50;
#X obj 24 9 vsl 15 128 0.001 1 0 0 empty empty empty 0 -9 0 10 -228856
-1 -1 0 1;
#X obj 0 102 vsl 15 30 0 1 0 0 empty empty empty 0 -9 0 10 -262144
-1 -1 0 1;
#X obj 68 284 spigot;
#X obj 4 20 tgl 15 0 empty empty empty 17 7 0 10 -191407 -1 -1 0 1
;
#X msg 268 123 0;
#X obj 70 311 outlet;
#X text 0 37 LFO;
#X obj 184 40 * 5;
#X obj 237 212 + 1;
#X obj 237 236 / 2;
#X obj 0 135 tgl 15 0 empty empty ^ 2 13 0 20 -228856 -204786 -1 0
1;
#X obj 0 0 tgl 15 0 empty empty ^ 2 13 0 20 -228856 -204786 -1 0 1
;
#X obj 318 52 inlet;
#X connect 0 0 1 0;
#X connect 1 0 12 0;
#X connect 2 0 3 0;
#X connect 3 0 1 0;
#X connect 4 0 11 0;
#X connect 5 0 6 0;
#X connect 6 0 9 0;
#X connect 7 0 6 1;
#X connect 7 0 8 0;
#X connect 7 0 2 0;
#X connect 8 0 0 1;
#X connect 11 0 0 0;
#X connect 12 0 13 0;
#X connect 13 0 5 0;
#X connect 16 0 4 0;
#X coords 0 1 100 -1 50 150 1 0 0;
#X restore 344 311 graph;
#N canvas 0 50 472 208 (subpatch) 0;
#N canvas 0 22 450 278 (subpatch) 0;
#X array Visualisation 100 float 4;
#X coords 0 1 99 -1 200 100 1 0 0;
#X restore 0 50 graph;
#X obj 181 3 tgl 15 0 empty empty empty 17 7 0 10 -228856 -1 -1 0 1
;
#X obj 270 75 metro 100;
#X obj 255 33 inlet~;
#X obj 0 0 tgl 15 0 empty empty ~ 2 7 0 20 -228856 -204786 -1 0 1;
#X obj 254 109 tabwrite~ Visualisation;
#X connect 1 0 2 0;
#X connect 2 0 5 0;
#X connect 3 0 5 0;
#X coords 0 1 100 -1 200 150 1 0 0;
#X restore 474 798 graph;
#N canvas -11 -11 1920 1016 (subpatch) 0;
#X obj 184 325 phasor~;
#X obj 185 363 snapshot~;
#X obj 252 382 tgl 15 0 empty empty empty 17 7 0 10 -262144 -1 -1 1
1;
#X floatatom 43 0 5 0 0 0 - - -;
#X msg 165 243 1;
#X obj 165 262 /;
#X obj 192 382 metro 50;
#X msg 165 281 0;
#X floatatom 185 401 5 0 0 0 - - -;
#X obj 184 300 *;
#X obj 210 260 bng 15 250 50 0 empty empty empty 17 7 0 10 -262144
-1 -1;
#X msg 230 300 0;
#X obj 5 17 hsl 1000 15 0 1 0 0 empty empty empty -2 -8 0 10 -262144
-1 -1 25519 1;
#X obj 309 356 loadbang;
#X obj 124 491 outlet;
#X obj 119 75 inlet;
#X obj 838 2 hsl 128 15 -1 1 0 0 empty empty empty -2 -8 0 10 -262144
-1 -1 12700 1;
#X obj 722 285 tgl 15 0 empty empty empty 0 -12 1 20 -262144 -1 -1
1 1;
#X floatatom 495 290 5 0 0 0 - - -;
#X msg 880 295 1, f 2;
#X obj 880 245 spigot;
#X obj 919 230 tgl 15 0 empty empty empty 17 7 0 10 -262144 -1 -1 0
1;
#X msg 919 206 1;
#X floatatom 338 202 5 0 0 0 - - -;
#X obj 919 186 bng 15 250 50 0 empty empty empty 17 7 0 10 -262144
-1 -1;
#X obj 494 166 * -1;
#X obj 495 217 * -1;
#X obj 494 189 moses 0;
#X floatatom 495 241 5 0 0 0 - - -;
#X obj 434 189 moses 0;
#X floatatom 434 211 5 0 0 0 - - -;
#X msg 722 261 0;
#X obj 817 2 tgl 15 0 empty empty empty 17 7 0 10 -262144 -1 -1 1 1
;
#X obj 722 238 sel 0;
#X obj 495 337 spigot;
#X obj 534 322 tgl 15 0 empty empty empty 17 7 0 10 -262144 -1 -1 0
1;
#X obj 581 280 del 1;
#X msg 581 303 0;
#X msg 581 256 1;
#X obj 547 275 bng 15 250 50 0 empty empty empty 17 7 0 10 -262144
-1 -1;
#X floatatom 495 361 5 0 0 0 - - -;
#X obj 581 233 sel 1;
#X msg 960 211 0;
#X floatatom 434 148 5 0 0 0 - - -;
#X obj 957 130 bng 15 250 50 0 empty empty empty 17 7 0 10 -262144
-1 -1;
#X obj 919 277 bng 15 250 50 0 empty empty empty 17 7 0 10 -262144
-1 -1;
#X obj 880 206 del 1;
#X obj 960 180 del 2;
#X msg 603 68 1;
#X obj 722 305 sel 1;
#X obj 722 353 bng 15 250 50 0 empty empty empty 17 7 0 10 -262144
-1 -1;
#X obj 722 329 del 1;
#X obj 320 240 * 1;
#X obj 1018 92 inlet;
#X obj 283 105 tgl 15 0 empty empty . 2 3 0 20 -228856 -204786 -1 0
1;
#X obj 995 0 tgl 15 0 empty empty ^ 2 13 0 20 -228856 -204786 -1 0
1;
#X obj 0 0 tgl 15 0 empty empty . 2 3 0 20 -228856 -204786 -1 0 1;
#X text 363 503 input1:piste(sec) input2:modulation output1:lecture
, f 53;
#X obj 0 35 tgl 15 0 empty empty ^ 2 13 0 20 -228856 -204786 -1 0 1
;
#X text 18 -1 sec;
#X text 970 -1 mod;
#X text 18 32 controle;
#X obj 1090 10 loadbang;
#X msg 1093 34 1;
#X connect 0 0 1 0;
#X connect 1 0 8 0;
#X connect 2 0 6 0;
#X connect 3 0 5 1;
#X connect 3 0 4 0;
#X connect 4 0 5 0;
#X connect 5 0 9 0;
#X connect 6 0 1 0;
#X connect 7 0 9 0;
#X connect 8 0 14 0;
#X connect 8 0 12 0;
#X connect 9 0 0 0;
#X connect 10 0 9 0;
#X connect 11 0 0 1;
#X connect 13 0 2 0;
#X connect 15 0 3 0;
#X connect 16 0 43 0;
#X connect 16 0 23 0;
#X connect 17 0 49 0;
#X connect 18 0 34 0;
#X connect 18 0 44 0;
#X connect 19 0 17 0;
#X connect 20 0 19 0;
#X connect 20 0 45 0;
#X connect 21 0 20 1;
#X connect 22 0 21 0;
#X connect 23 0 52 0;
#X connect 24 0 22 0;
#X connect 25 0 27 0;
#X connect 26 0 28 0;
#X connect 27 0 26 0;
#X connect 28 0 18 0;
#X connect 29 0 30 0;
#X connect 30 0 18 0;
#X connect 31 0 17 0;
#X connect 31 0 16 0;
#X connect 32 0 33 0;
#X connect 32 0 41 0;
#X connect 33 0 31 0;
#X connect 33 0 24 0;
#X connect 34 0 40 0;
#X connect 35 0 34 1;
#X connect 36 0 37 0;
#X connect 37 0 35 0;
#X connect 38 0 36 0;
#X connect 38 0 35 0;
#X connect 38 0 39 0;
#X connect 39 0 18 0;
#X connect 40 0 16 0;
#X connect 41 0 38 0;
#X connect 42 0 21 0;
#X connect 43 0 29 0;
#X connect 43 0 25 0;
#X connect 44 0 46 0;
#X connect 44 0 47 0;
#X connect 46 0 20 0;
#X connect 47 0 42 0;
#X connect 48 0 32 0;
#X connect 49 0 51 0;
#X connect 50 0 48 0;
#X connect 51 0 50 0;
#X connect 52 0 9 1;
#X connect 52 0 10 0;
#X connect 53 0 16 0;
#X connect 62 0 63 0;
#X connect 63 0 32 0;
#X connect 63 0 16 0;
#X coords 0 1 100 -1 1010 50 1 0 0;
#X restore 814 475 graph;
#N canvas -11 -11 1920 1016 (subpatch) 0;
#X obj 5 48 hsl 1000 15 0 1 0 0 empty empty empty -2 -8 0 10 -262144
-1 -1 0 1;
#X obj 5 33 hsl 1000 15 0 1 0 0 empty empty empty -2 -8 0 10 -262144
-1 -1 0 1;
#X obj 562 367 +;
#X obj 525 350 bng 15 250 50 0 empty empty empty 17 7 0 10 -262144
-1 -1;
#X floatatom 115 431 5 0 0 0 - - -;
#X obj 109 392 /;
#X floatatom 446 238 5 0 0 0 - - -;
#X obj 331 274 -;
#X floatatom 338 299 5 0 0 0 - - -;
#X obj 336 322 /;
#X floatatom 339 346 5 0 0 0 - - -;
#X obj 367 388 moses 1;
#X floatatom 529 452 5 0 0 0 - - -;
#X obj 367 412 moses 0;
#X obj 410 248 bng 15 250 50 0 empty empty empty 17 7 0 10 -262144
-1 -1;
#X floatatom 572 391 5 0 0 0 - - -;
#X obj 93 377 bng 15 250 50 0 empty empty empty 17 7 0 10 -262144 -1
-1;
#X floatatom 93 340 5 0 0 0 - - -;
#X obj 10 167 inlet;
#X obj 93 358 del 1;
#X floatatom 564 313 5 0 0 0 - - -;
#X obj 140 167 inlet;
#X floatatom 181 353 5 0 0 0 - - -;
#X obj 296 181 inlet;
#X text 341 163 durée sample;
#X text 203 174 durée piste;
#X text 912 449 lecture sample;
#X text 53 165 lecture;
#X obj 873 471 outlet;
#X obj 653 175 -;
#X floatatom 693 119 5 0 0 0 - - -;
#X obj 693 142 bng 15 250 50 0 empty empty empty 17 7 0 10 -262144
-1 -1;
#X floatatom 653 199 5 0 0 0 - - -;
#X obj 605 213 /;
#X floatatom 607 259 5 0 0 0 - - -;
#X obj 588 177 bng 15 250 50 0 empty empty empty 17 7 0 10 -262144
-1 -1;
#X obj 731 385 *;
#X floatatom 666 408 5 0 0 0 - - -;
#X obj 672 352 bng 15 250 50 0 empty empty empty 17 7 0 10 -262144
-1 -1;
#X obj 995 0 tgl 15 0 empty empty . 2 3 0 20 -228856 -204786 -1 0 1
;
#X obj 0 0 tgl 15 0 empty empty ^ 2 13 0 20 -228856 -204786 -1 0 1
;
#X obj 0 85 tgl 15 0 empty empty ^ 2 13 0 20 -228856 -204786 -1 0 1
;
#X obj 498 0 tgl 15 0 empty empty . 2 3 0 20 -228856 -204786 -1 0 1
;
#X text 17 0 controle;
#X text 17 83 controle;
#X text 410 -1 controle sec;
#X text 921 0 piste sec;
#X connect 0 0 29 0;
#X connect 1 0 2 0;
#X connect 1 0 6 0;
#X connect 1 0 30 0;
#X connect 2 0 15 0;
#X connect 3 0 2 0;
#X connect 4 0 20 0;
#X connect 4 0 33 0;
#X connect 5 0 4 0;
#X connect 6 0 7 1;
#X connect 6 0 14 0;
#X connect 7 0 8 0;
#X connect 8 0 9 0;
#X connect 9 0 10 0;
#X connect 10 0 36 0;
#X connect 11 0 13 0;
#X connect 12 0 28 0;
#X connect 13 1 12 0;
#X connect 14 0 7 0;
#X connect 15 0 0 0;
#X connect 16 0 5 0;
#X connect 17 0 5 1;
#X connect 17 0 19 0;
#X connect 18 0 7 0;
#X connect 19 0 16 0;
#X connect 20 0 2 1;
#X connect 20 0 3 0;
#X connect 20 0 9 1;
#X connect 21 0 17 0;
#X connect 22 0 5 0;
#X connect 23 0 22 0;
#X connect 29 0 32 0;
#X connect 30 0 31 0;
#X connect 30 0 29 1;
#X connect 31 0 29 0;
#X connect 32 0 33 1;
#X connect 32 0 35 0;
#X connect 33 0 34 0;
#X connect 34 0 36 1;
#X connect 34 0 38 0;
#X connect 35 0 33 0;
#X connect 36 0 37 0;
#X connect 37 0 11 0;
#X connect 38 0 36 0;
#X coords 0 1 100 -1 1010 100 1 0 0;
#X restore 576 49 graph;
#X obj 65 861 env~;
#X floatatom 65 885 5 0 0 0 - - -;
#X obj 65 908 / 100;
#X obj 1769 35 loadbang;
#X msg 1769 57 \; pd dsp 1;
#X obj 59 584 looper/sampler;
#N canvas 559 226 742 606 (subpatch) 0;
#X msg 125 302 stop;
#X msg 102 279 open \$1.mp3 \, start;
#X obj 102 235 f;
#X obj 127 235 + 1;
#X msg 127 216 0;
#X obj 102 215 bng 15 250 50 0 empty empty empty 17 7 0 10 -262144
-1 -1;
#X floatatom 102 257 5 0 0 0 - - -;
#X obj 8 108 tgl 32 0 empty empty empty 17 7 0 10 -262144 -1 -1 0 1
;
#X obj 102 190 sel 1 0;
#X obj 102 344 writesf~ 2;
#X obj 363 300 *~;
#X obj 339 323 dac~;
#X obj 338 300 *~;
#X obj 8 32 vsl 32 64 0 1 0 0 empty empty empty 0 -9 0 10 -262144 -1
-1 6300 1;
#X obj 398 189 inlet~;
#X obj 271 189 inlet~;
#X obj 35 0 tgl 15 0 empty empty ~ 2 7 0 20 -228856 -204786 -1 0 1
;
#X obj 18 0 tgl 15 0 empty empty ^ 2 13 0 20 -228856 -204786 -1 0 1
;
#X obj 328 155 inlet;
#X obj 0 0 tgl 15 0 empty empty ~ 2 7 0 20 -228856 -204786 -1 0 1;
#X msg 184 62 1;
#X obj 184 34 loadbang;
#X connect 0 0 9 0;
#X connect 1 0 9 0;
#X connect 2 0 3 0;
#X connect 2 0 6 0;
#X connect 3 0 2 1;
#X connect 4 0 2 0;
#X connect 5 0 2 0;
#X connect 6 0 1 0;
#X connect 7 0 8 0;
#X connect 8 0 5 0;
#X connect 8 1 0 0;
#X connect 10 0 11 1;
#X connect 12 0 11 0;
#X connect 13 0 10 1;
#X connect 13 0 12 1;
#X connect 14 0 9 1;
#X connect 14 0 10 0;
#X connect 15 0 9 0;
#X connect 15 0 12 0;
#X connect 18 0 13 0;
#X connect 20 0 13 0;
#X connect 21 0 20 0;
#X coords 0 1 100 -1 50 150 1 0 0;
#X restore 819 765 graph;
#N canvas 916 285 635 609 (subpatch) 0;
#X obj 278 206 lop~;
#X obj 400 209 hip~;
#X obj 279 170 inlet~;
#X obj 5 17 hsl 190 15 0 1 0 0 empty empty empty -2 -8 0 10 -262144
-1 -1 9450 1;
#X obj 281 338 *~;
#X obj 301 323 tgl 15 0 empty empty empty 17 7 0 10 -262144 -1 -1 0
1;
#X obj 79 35 hradio 15 1 0 3 empty empty empty 0 -8 0 10 -262144 -1
-1 1;
#X obj 85 173 sel 0 1 2;
#X msg 48 255 0;
#X msg 73 255 1;
#X obj 85 197 bng 15 250 50 0 empty empty empty 17 7 0 10 -262144 -1
-1;
#X obj 105 197 bng 15 250 50 0 empty empty empty 17 7 0 10 -262144
-1 -1;
#X obj 125 197 bng 15 250 50 0 empty empty empty 17 7 0 10 -262144
-1 -1;
#X msg 103 301 0;
#X msg 128 301 1;
#X msg 139 262 0;
#X msg 164 262 1;
#X obj 34 346 *~;
#X obj 54 331 tgl 15 0 empty empty empty 17 7 0 10 -262144 -1 -1 0
1;
#X obj 108 373 *~;
#X obj 128 358 tgl 15 0 empty empty empty 17 7 0 10 -262144 -1 -1 1
1;
#X obj 142 503 outlet~;
#X obj 327 207 bp~ 400 10;
#X obj 361 151 *;
#X obj 332 118 * 100;
#X obj 383 116 * 100;
#X obj 459 -5 inlet;
#X obj 0 35 tgl 15 0 empty empty ~ 2 7 0 20 -228856 -204786 -1 0 1
;
#X obj 185 0 tgl 15 0 empty empty ^ 2 13 0 20 -228856 -204786 -1 0
1;
#X obj 0 0 tgl 15 0 empty empty ~ 2 7 0 20 -228856 -204786 -1 0 1;
#X text 77 0 filtre;
#X msg 283 51 0.5;
#X obj 289 25 loadbang;
#X msg 190 97 1;
#X connect 0 0 17 0;
#X connect 1 0 4 0;
#X connect 2 0 0 0;
#X connect 2 0 1 0;
#X connect 2 0 22 0;
#X connect 3 0 24 0;
#X connect 3 0 25 0;
#X connect 4 0 21 0;
#X connect 5 0 4 1;
#X connect 6 0 7 0;
#X connect 7 0 10 0;
#X connect 7 1 11 0;
#X connect 7 2 12 0;
#X connect 8 0 20 0;
#X connect 8 0 5 0;
#X connect 9 0 18 0;
#X connect 10 0 8 0;
#X connect 10 0 9 0;
#X connect 11 0 13 0;
#X connect 11 0 14 0;
#X connect 12 0 16 0;
#X connect 12 0 15 0;
#X connect 13 0 18 0;
#X connect 13 0 5 0;
#X connect 14 0 20 0;
#X connect 15 0 20 0;
#X connect 15 0 18 0;
#X connect 16 0 5 0;
#X connect 17 0 21 0;
#X connect 18 0 17 1;
#X connect 19 0 21 0;
#X connect 20 0 19 1;
#X connect 22 0 19 0;
#X connect 23 0 0 1;
#X connect 23 0 1 1;
#X connect 23 0 22 1;
#X connect 24 0 23 0;
#X connect 25 0 23 1;
#X connect 26 0 3 0;
#X connect 31 0 3 0;
#X connect 32 0 31 0;
#X connect 32 0 33 0;
#X connect 33 0 6 0;
#X coords 0 1 100 -1 200 50 1 0 0;
#X restore 463 740 graph;
#N canvas -11 -11 1920 1016 (subpatch) 0;
#X obj 573 330 soundfiler;
#X obj 98 456 / 48000;
#N canvas 0 50 450 221 (subpatch) 0;
#X array SAMPLE1 8.31603e+006 float 0;
#X coords 0 1 8.31603e+006 -1 1000 100 1 0 0;
#X restore 4 44 graph;
#X obj 44 624 *~;
#X obj 846 3 bng 15 250 50 0 empty empty empty 17 7 0 10 -228856 -1
-1;
#X obj 573 292 openpanel;
#X obj 44 596 line~;
#X floatatom 44 551 5 0 0 0 - - -;
#X obj 5 29 hsl 1000 15 0 1 0 0 empty empty empty -2 -8 0 10 -262144
-1 -1 0 1;
#X obj 43 811 outlet~;
#X floatatom 858 179 15 0 0 0 - - -;
#X obj 971 277 outlet;
#X obj 5 144 hsl 1000 15 0 1 0 0 empty empty empty -2 -8 0 10 -228856
-1 -1 0 1;
#X obj 5 159 hsl 1000 15 0 1 0 0 empty empty empty -2 -8 0 10 -228856
-1 -1 0 1;
#X floatatom 398 441 15 0 0 0 - - -;
#X floatatom 98 597 15 0 0 0 - - -;
#X obj 98 380 -;
#X obj 98 365 bng 15 250 50 0 empty empty empty 17 7 0 10 -262144 -1
-1;
#X floatatom 99 347 5 0 0 0 - - -;
#X floatatom 98 404 5 0 0 0 - - -;
#X obj 98 437 *;
#X obj 98 422 bng 15 250 50 0 empty empty empty 17 7 0 10 -262144 -1
-1;
#X obj 291 718 snapshot~;
#X obj 298 684 tgl 15 0 empty empty empty 17 7 0 10 -262144 -1 -1 1
1;
#X floatatom 291 741 15 0 0 0 - - -;
#X obj 298 665 loadbang;
#X obj 291 763 /;
#X obj 44 698 +~;
#X obj 414 508 *;
#X obj 414 492 bng 15 250 50 0 empty empty empty 17 7 0 10 -262144
-1 -1;
#X obj 44 527 inlet;
#X msg 1027 115 0;
#X msg 1028 130 1;
#X msg 876 488 stop;
#X obj 931 476 timer;
#X obj 931 433 sel 1 0;
#X obj 931 452 bng 15 250 50 0 empty empty empty 17 7 0 10 -262144
-1 -1;
#X obj 954 452 bng 15 250 50 0 empty empty empty 17 7 0 10 -262144
-1 -1;
#X obj 929 3 tgl 15 0 empty empty empty 17 7 0 10 -228856 -1 -1 0 1
;
#X msg 796 488 start;
#X floatatom 931 500 5 0 0 0 - - -;
#X obj 796 467 del 1;
#X obj 931 523 * 48;
#X msg 1092 569 4.8e+007;
#X obj 1092 529 bng 15 250 50 0 empty empty empty 17 7 0 10 -262144
-1 -1;
#X obj 1092 547 del 1;
#X msg 1148 544 0;
#X obj 759 3 bng 15 250 50 0 empty empty empty 17 7 0 10 -228856 -1
-1;
#X text 946 2 rec;
#X text 862 2 load;
#X text 776 2 reset;
#X obj 995 518 / 1000;
#X obj 1027 100 bng 15 250 50 0 empty empty empty 17 7 0 10 -262144
-1 -1;
#X obj 725 401 inlet~;
#X obj 1027 81 sel 1;
#X obj 840 179 bng 15 250 50 0 empty empty empty 17 7 0 10 -262144
-1 -1;
#X text 932 627 voire si possible de generer nouveau table;
#X msg 573 311 read -resize \$1 SAMPLE1;
#X obj 796 510 tabwrite~ SAMPLE1;
#X obj 934 608 array size SAMPLE1;
#X obj 43 786 tabread~ SAMPLE1;
#X msg 447 687 \$1 50;
#X obj 556 807 vsl 15 100 -1 1 0 0 empty empty empty 0 -9 0 10 -262144
-1 -1 4950 1;
#X floatatom 447 766 5 0 0 0 - - -;
#X obj 447 716 line;
#X obj 447 662 *;
#X obj 445 803 outlet;
#X obj 447 740 tabread SAMPLE1;
#X obj 298 699 metro 100;
#X msg 44 573 \$1 50;
#X text 745 385 son;
#X text 30 509 lecture;
#X text 102 477 + mode decoupe inverse;
#X text 434 422 duréébrut;
#X obj 995 0 tgl 15 0 empty empty ~ 2 7 0 20 -228856 -204786 -1 0 1
;
#X obj 995 185 tgl 15 0 empty empty . 2 3 0 20 -228856 -204786 -1 0
1;
#X obj 1 0 tgl 15 0 empty empty ^ 2 13 0 20 -228856 -204786 -1 0 1
;
#X obj 497 185 tgl 15 0 empty empty ^ 2 13 0 20 -228856 -204786 -1
0 1;
#X obj 0 185 tgl 15 0 empty empty ~ 2 7 0 20 -228856 -204786 -1 0 1
;
#X text 437 183 controle;
#X text 970 183 sec;
#X connect 0 0 14 0;
#X connect 0 0 59 0;
#X connect 1 0 10 0;
#X connect 3 0 27 0;
#X connect 4 0 5 0;
#X connect 4 0 52 0;
#X connect 5 0 57 0;
#X connect 6 0 3 0;
#X connect 7 0 69 0;
#X connect 8 0 65 0;
#X connect 10 0 11 0;
#X connect 12 0 18 0;
#X connect 12 0 28 0;
#X connect 13 0 16 0;
#X connect 14 0 20 0;
#X connect 14 0 26 1;
#X connect 14 0 28 1;
#X connect 14 0 29 0;
#X connect 15 0 3 1;
#X connect 15 0 65 1;
#X connect 16 0 19 0;
#X connect 17 0 16 0;
#X connect 18 0 17 0;
#X connect 18 0 16 1;
#X connect 19 0 20 1;
#X connect 19 0 21 0;
#X connect 20 0 1 0;
#X connect 20 0 15 0;
#X connect 21 0 20 0;
#X connect 22 0 24 0;
#X connect 23 0 68 0;
#X connect 24 0 26 0;
#X connect 25 0 23 0;
#X connect 26 0 8 0;
#X connect 27 0 22 0;
#X connect 27 0 60 0;
#X connect 28 0 27 1;
#X connect 29 0 28 0;
#X connect 30 0 7 0;
#X connect 31 0 12 0;
#X connect 32 0 13 0;
#X connect 33 0 58 0;
#X connect 34 0 40 0;
#X connect 35 0 36 0;
#X connect 35 1 37 0;
#X connect 36 0 34 0;
#X connect 36 0 41 0;
#X connect 37 0 34 1;
#X connect 37 0 33 0;
#X connect 38 0 35 0;
#X connect 38 0 54 0;
#X connect 39 0 58 0;
#X connect 40 0 42 0;
#X connect 40 0 51 0;
#X connect 41 0 39 0;
#X connect 42 0 14 0;
#X connect 42 0 59 0;
#X connect 43 0 59 0;
#X connect 44 0 45 0;
#X connect 44 0 46 0;
#X connect 45 0 43 0;
#X connect 46 0 59 0;
#X connect 47 0 45 0;
#X connect 47 0 52 0;
#X connect 51 0 10 0;
#X connect 52 0 32 0;
#X connect 52 0 31 0;
#X connect 53 0 58 0;
#X connect 54 0 52 0;
#X connect 55 0 10 0;
#X connect 57 0 0 0;
#X connect 60 0 9 0;
#X connect 61 0 64 0;
#X connect 63 0 62 0;
#X connect 63 0 66 0;
#X connect 64 0 67 0;
#X connect 65 0 61 0;
#X connect 67 0 63 0;
#X connect 68 0 22 0;
#X connect 69 0 6 0;
#X coords 0 1 100 -1 1010 200 1 0 0;
#X restore 536 164 graph;
#N canvas 696 88 1035 746 (subpatch) 0;
#X floatatom 291 265 0 0 0 0 - - -;
#X obj 291 636 *~;
#X obj 414 563 line~;
#X floatatom 414 300 0 0 0 0 - - -;
#X text 27 0 PITCH SHIFTER;
#X obj 414 537 pack 0 200;
#X obj 414 274 r window;
#X obj 291 321 exp;
#X floatatom 291 347 6 0 0 0 - - -;
#X obj 291 437 /;
#X obj 339 371 * 0.001;
#X obj 513 624 line~;
#X obj 513 599 pack 0 200;
#X floatatom 513 548 0 0 0 0 - - -;
#X obj 513 522 r delay;
#X obj 291 662 +~;
#X obj 228 688 cos~;
#X obj 228 715 *~;
#X obj 369 759 +~;
#X obj 355 565 wrap~;
#X obj 450 619 *~;
#X obj 450 671 +~;
#X obj 387 698 cos~;
#X obj 387 725 *~;
#X msg 527 66 \; transpose 0 \; window 100 \; delay 0;
#X obj 527 40 loadbang;
#X obj 339 398 t b f;
#X floatatom 291 463 6 0 0 0 - - -;
#X obj 355 538 +~ 0.5;
#X obj 228 636 -~ 0.5;
#X obj 228 662 *~ 0.5;
#X obj 387 618 -~ 0.5;
#X obj 387 670 *~ 0.5;
#X obj 291 374 - 1;
#X obj 291 295 * 0.05776;
#X obj 291 400 * -1;
#X text 244 341 speed;
#X text 237 355 change;
#X text 219 454 tape head;
#X obj 291 494 phasor~;
#X obj 513 575 max 1.5;
#X text 516 481 delay;
#X text 513 499 (msec);
#X obj 414 327 max 1;
#X text 219 467 rotation freq, f 9;
#X text 447 300 <= window (msec);
#X text 182 250 transposition;
#X text 181 263 (halftones) =>;
#X obj 41 130 delwrite~ pitchshift 5000;
#X obj 450 700 vd~ pitchshift;
#X obj 368 792 outlet~;
#X obj 291 688 vd~ pitchshift;
#X obj 41 99 inlet~;
#X obj 291 165 * 48;
#X text 177 167 range 4 octaves;
#X obj 5 18 hsl 140 15 0 1 0 0 empty empty empty -2 -8 0 10 -262144
-1 -1 6950 1;
#X obj 305 53 inlet;
#X floatatom 291 189 5 0 0 0 - - -;
#X floatatom 222 92 5 0 0 0 - - -;
#X obj 291 130 - 0.5;
#X obj 0 0 tgl 15 0 empty empty ~ 2 7 0 20 -228856 -204786 -1 0 1;
#X obj 767 285 tgl 15 0 empty empty . 2 3 0 20 -228856 -204786 -1 0
1;
#X obj 135 0 tgl 15 0 empty empty ^ 2 13 0 20 -228856 -204786 -1 0
1;
#X obj 0 35 tgl 15 0 empty empty ~ 2 7 0 20 -228856 -204786 -1 0 1
;
#X obj 420 74 loadbang;
#X msg 420 98 0.5;
#X connect 0 0 34 0;
#X connect 1 0 15 0;
#X connect 2 0 1 1;
#X connect 2 0 20 1;
#X connect 3 0 43 0;
#X connect 5 0 2 0;
#X connect 6 0 3 0;
#X connect 7 0 8 0;
#X connect 8 0 33 0;
#X connect 9 0 27 0;
#X connect 10 0 26 0;
#X connect 11 0 15 1;
#X connect 11 0 21 1;
#X connect 12 0 11 0;
#X connect 13 0 40 0;
#X connect 14 0 13 0;
#X connect 15 0 51 0;
#X connect 16 0 17 0;
#X connect 17 0 18 0;
#X connect 18 0 50 0;
#X connect 19 0 20 0;
#X connect 19 0 31 0;
#X connect 20 0 21 0;
#X connect 21 0 49 0;
#X connect 22 0 23 0;
#X connect 23 0 18 1;
#X connect 25 0 24 0;
#X connect 26 0 9 0;
#X connect 26 1 9 1;
#X connect 27 0 39 0;
#X connect 28 0 19 0;
#X connect 29 0 30 0;
#X connect 30 0 16 0;
#X connect 31 0 32 0;
#X connect 32 0 22 0;
#X connect 33 0 35 0;
#X connect 34 0 7 0;
#X connect 35 0 9 0;
#X connect 39 0 1 0;
#X connect 39 0 29 0;
#X connect 39 0 28 0;
#X connect 40 0 12 0;
#X connect 43 0 10 0;
#X connect 43 0 5 0;
#X connect 49 0 23 1;
#X connect 51 0 17 1;
#X connect 52 0 48 0;
#X connect 53 0 0 0;
#X connect 53 0 57 0;
#X connect 55 0 58 0;
#X connect 55 0 59 0;
#X connect 56 0 55 0;
#X connect 59 0 53 0;
#X connect 64 0 65 0;
#X connect 65 0 55 0;
#X coords 0 1 100 -1 150 50 1 0 0;
#X restore 488 619 graph;
#X obj 59 542 looader? mono usage donc bof;
#X obj 59 605 smplr stereo;
#X obj 140 882 moses 0;
#X floatatom 154 851 5 0 0 0 - - -;
#X floatatom 204 919 5 0 0 0 - - -;
#X obj 137 917 * -1;
#X obj 59 667 CV = 0_1 / -1_1 ?;
#N canvas -11 -11 1920 1016 (subpatch) 0;
#X obj 234 161 timer;
#X obj 234 141 bng 15 250 50 0 empty empty empty 17 7 0 10 -262144
-1 -1;
#X obj 266 141 bng 15 250 50 0 empty empty empty 17 7 0 10 -262144
-1 -1;
#X obj 234 58 f;
#X obj 259 58 + 1;
#X msg 239 37 0;
#X floatatom 234 80 5 0 0 0 - - -;
#X obj 17 22 bng 60 250 50 0 empty empty empty 17 7 0 10 -191407 -1
-1;
#X floatatom 280 123 5 0 0 0 - - -;
#X floatatom 234 123 5 0 0 0 - - -;
#X obj 234 101 moses 2;
#X obj 234 184 /;
#X floatatom 234 283 5 0 0 0 - - -;
#X msg 234 235 60000;
#X obj 234 259 /;
#X obj 239 15 del 2000;
#X obj 234 206 t b f;
#X text 13 3 tap tempo;
#X floatatom 318 230 5 0 0 0 - - -;
#X obj 318 253 / 1000;
#X floatatom 318 277 5 0 0 0 - - -;
#X obj 14 233 outlet;
#X obj 62 210 outlet;
#X floatatom 63 107 5 0 0 0 - - -;
#X floatatom 0 107 5 0 0 0 - - -;
#X obj 0 135 tgl 15 0 empty empty . 2 3 0 20 -228856 -204786 -1 0 1
;
#X obj 85 135 tgl 15 0 empty empty . 2 3 0 20 -228856 -204786 -1 0
1;
#X text 23 132 BPM sec;
#X connect 0 0 11 0;
#X connect 1 0 0 0;
#X connect 2 0 0 1;
#X connect 3 0 4 0;
#X connect 3 0 6 0;
#X connect 4 0 3 1;
#X connect 5 0 3 0;
#X connect 6 0 10 0;
#X connect 6 0 11 1;
#X connect 7 0 15 0;
#X connect 7 0 3 0;
#X connect 8 0 2 0;
#X connect 9 0 1 0;
#X connect 10 0 9 0;
#X connect 10 1 8 0;
#X connect 11 0 16 0;
#X connect 12 0 24 0;
#X connect 13 0 14 0;
#X connect 14 0 12 0;
#X connect 15 0 5 0;
#X connect 16 0 13 0;
#X connect 16 1 14 1;
#X connect 16 1 18 0;
#X connect 18 0 19 0;
#X connect 19 0 20 0;
#X connect 20 0 23 0;
#X connect 23 0 22 0;
#X connect 24 0 21 0;
#X coords 0 1 100 -1 100 150 1 0 0;
#X restore 411 75 graph;
#X obj 59 563 timeline bougeable;
#X obj 56 210 tgl 15 0 empty empty ~ 2 7 0 20 -228856 -204786 -1 0
1;
#X obj 56 270 tgl 15 0 empty empty . 2 3 0 20 -228856 -204786 -1 0
1;
#X obj 56 240 tgl 15 0 empty empty ^ 2 13 0 20 -228856 -204786 -1 0
1;
#X obj 177 585 refaire tab;
#X text 74 208 sinal son;
#X text 75 268 nombre;
#X text 126 689 trig?;
#X text 73 239 flux nombre / controle;
#X obj 56 52 PdDaw v.0;
#X obj 56 181 legende :;
#X text 58 443 notes :;
#N canvas -11 -11 1920 1016 (subpatch) 0;
#X obj 6 149 credits;
#X obj 722 314 1;
#X msg 722 347 2;
#X floatatom 720 381 5 0 0 0 - - -;
#X text 666 314 ctrl 1;
#X text 666 347 ctrl 2;
#X text 666 381 ctrl 3;
#X obj 1440 268 *;
#X obj 1440 364 *~;
#X obj 1440 303 *;
#X obj 1440 329 *;
#X text 1315 690 aide > navigateur d'aide > PureData/;
#X obj 1218 669 guide html;
#X text 1314 669 aide > aide html;
#X obj 1218 691 patch exemple;
#X floatatom 391 659 5 0 0 0 - - -;
#X floatatom 331 659 5 0 0 0 - - -;
#X floatatom 352 742 5 0 0 0 - - -;
#X msg 391 622 1;
#X obj 1218 637 POUR APPROFONDIR;
#X text 664 259 click droit (élement) > aide : informations et exemples
;
#X obj 148 284 CTRL E;
#X text 1472 347 ~ signal audio (continu);
#X text 1479 285 signal numérique;
#X msg 1283 303 objet;
#X text 1212 315 sortie ->;
#X text 1218 294 entré ->;
#X obj 1211 239 BRANCHEMENT;
#X obj 331 592 bng 15 250 50 0 empty empty empty 17 7 0 10 -262144
-1 -1;
#X obj 722 412 bng 15 250 50 0 empty empty empty 17 7 0 10 -262144
-1 -1;
#X text 667 410 ctrl B;
#X text 769 408 boutton : déclencheur;
#X text 766 381 number box : interactible;
#X text 759 346 message box : figé;
#X text 762 317 object box : click droit (vide) > aide = liste;
#X obj 150 528 EXEMPLE : ordre d'operation;
#X obj 442 355 bng 30 250 50 0 empty empty empty 17 7 0 10 -262144
-1 -1;
#X text 171 308 <-> mode performance (interagir);
#X obj 352 698 -;
#X msg 331 622 2;
#X text 675 627 EXERCICE : faire le calcul en interagissant uniquement
avec l'entrée de droite, f 29;
#X text 144 368 EXERCICE : tester les modes sur le boutton;
#X text 200 283 mode edition (selectionner deplacer), f 37;
#X text 658 205 -----------------------------------------------------------------------
, f 72;
#X text 212 690 entré de gauche -> = déclencheur, f 18;
#X text 382 689 <- entré de droite = "inerte", f 18;
#X text 432 659 <- interactible;
#N canvas 1015 180 450 163 (subpatch) 0;
#X floatatom 328 129 5 0 0 0 - - -;
#X floatatom 268 129 5 0 0 0 - - -;
#X floatatom 289 212 5 0 0 0 - - -;
#X msg 328 92 1;
#X obj 268 62 bng 15 250 50 0 empty empty empty 17 7 0 10 -262144 -1
-1;
#X obj 289 168 -;
#X msg 268 92 2;
#X text 7 25 click droite > ouvrir, f 13;
#X text 212 12 déclanche le signal de gauche quand le signal de droite
varie, f 31;
#X text 7 7 SOLUTION :;
#X connect 0 0 5 1;
#X connect 0 0 4 0;
#X connect 1 0 5 0;
#X connect 3 0 0 0;
#X connect 4 0 6 0;
#X connect 5 0 2 0;
#X connect 6 0 1 0;
#X coords 0 1 100 -1 105 57 1 0 0;
#X restore 675 690 graph;
#X text 658 495 -----------------------------------------------------------------------
, f 72;
#X text 1178 205 -----------------------------------------------------------------------
, f 72;
#X text 1178 495 -----------------------------------------------------------------------
, f 72;
#X text 138 205 -----------------------------------------------------------------------
, f 72;
#X text 138 495 -----------------------------------------------------------------------
, f 72;
#X obj 148 234 EDITION / INTERACTION;
#X obj 666 234 TYPES DE BOX;
#X obj 1438 238 TYPES DE SIGNAUX;
#X text 4 7 TUTO BASICS PUREDATA;
#X text 5 26 click droit > ouvrir;
#X text 1216 403 select > sup;
#X obj 1215 371 DEBRANCHER;
#X connect 7 0 9 0;
#X connect 10 0 8 0;
#X connect 15 0 38 1;
#X connect 16 0 38 0;
#X connect 18 0 15 0;
#X connect 28 0 39 0;
#X connect 38 0 17 0;
#X connect 39 0 16 0;
#X coords 0 1 100 -1 155 52 1 0 0;
#X restore 56 115 graph;
#N canvas 929 176 740 616 (subpatch) 0;
#X obj 10 12 vsl 15 30 0 1 0 0 empty empty empty 0 -9 0 10 -262144
-1 -1 0 1;
#X obj 175 12 vsl 15 30 0 1 0 0 empty empty empty 0 -9 0 10 -262144
-1 -1 0 1;
#X obj 35 20 hsl 130 15 0 1 0 0 empty empty empty -2 -8 0 10 -262144
-1 -1 0 1;
#X obj 253 23 inlet;
#X obj 96 187 * -1;
#X obj 96 211 + 1;
#X obj 10 204 outlet;
#X obj 163 220 outlet;
#X obj 45 310 tgl 15 0 empty empty ~ 2 7 0 20 -228856 -204786 -1 0
1;
#X obj 46 341 tgl 15 0 empty empty . 2 3 0 20 -228856 -204786 -1 0
1;
#X obj 46 279 tgl 15 0 empty empty ^ 2 13 0 20 -228856 -204786 -1 0
1;
#X connect 0 0 6 0;
#X connect 1 0 7 0;
#X connect 2 0 0 0;
#X connect 2 0 4 0;
#X connect 3 0 2 0;
#X connect 4 0 5 0;
#X connect 5 0 1 0;
#X coords 0 1 100 -1 200 50 1 0 0;
#X restore 472 679 graph;
#X obj 59 709 cv > son ?;
#X obj 59 688 que cv ?;
#X obj 59 636 automation=smpl : (son>cv);
#X obj 59 520 smpl pitch up?;
#X obj 56 494 array define;
#N canvas -11 -11 1920 1016 (subpatch) 0;
#X obj 513 330 soundfiler;
#X obj 98 456 / 48000;
#N canvas 0 50 450 221 (subpatch) 0;
#X array SAMPLE3 104400 float 0;
#X coords 0 1 104399 -1 1000 100 1 0 0;
#X restore 4 44 graph;
#X obj 44 624 *~;
#X obj 846 3 bng 15 250 50 0 empty empty load 17 7 0 10 -228856 -1
-1;
#X obj 513 292 openpanel;
#X obj 44 596 line~;
#X floatatom 44 551 5 0 0 0 - - -;
#X obj 5 29 hsl 1000 15 0 1 0 0 empty empty empty -2 -8 0 10 -262144
-1 -1 23192 1;
#X obj 43 811 outlet~;
#X floatatom 858 179 15 0 0 0 - - -;
#X obj 960 227 outlet;
#X obj 5 144 hsl 1000 15 0 1 0 0 empty empty empty -2 -8 0 10 -228856
-1 -1 0 1;
#X obj 5 159 hsl 1000 15 0 1 0 0 empty empty empty -2 -8 0 10 -228856
-1 -1 99900 1;
#X floatatom 513 441 15 0 0 0 - - -;
#X floatatom 98 597 15 0 0 0 - - -;
#X obj 98 380 -;
#X obj 98 365 bng 15 250 50 0 empty empty empty 17 7 0 10 -262144 -1
-1;
#X floatatom 99 347 5 0 0 0 - - -;
#X floatatom 98 404 5 0 0 0 - - -;
#X obj 98 437 *;
#X obj 98 422 bng 15 250 50 0 empty empty empty 17 7 0 10 -262144 -1
-1;
#X obj 291 718 snapshot~;
#X obj 298 684 tgl 15 0 empty empty empty 17 7 0 10 -262144 -1 -1 1
1;
#X floatatom 291 741 15 0 0 0 - - -;
#X obj 298 665 loadbang;
#X obj 291 763 /;
#X obj 44 698 +~;
#X obj 414 508 *;
#X obj 414 492 bng 15 250 50 0 empty empty empty 17 7 0 10 -262144
-1 -1;
#X obj 44 527 inlet;
#X msg 1027 115 0;
#X msg 1028 130 1;
#X obj 929 3 tgl 15 0 empty empty rec 17 7 0 10 -228856 -1 -1 0 1;
#X obj 759 3 bng 15 250 50 0 empty empty reset 17 7 0 10 -228856 -1
-1;
#X obj 1027 100 bng 15 250 50 0 empty empty empty 17 7 0 10 -262144
-1 -1;
#X obj 1007 782 inlet~;
#X obj 1027 81 sel 1;
#X obj 840 179 bng 15 250 50 0 empty empty empty 17 7 0 10 -262144
-1 -1;
#X obj 298 699 metro 100;
#X msg 44 573 \$1 50;
#X text 1027 766 son;
#X text 30 509 lecture;
#X text 549 422 duréébrut;
#X obj 995 0 tgl 15 0 empty empty ~ 2 7 0 20 -228856 -204786 -1 0 1
;
#X obj 995 185 tgl 15 0 empty empty . 2 3 0 20 -228856 -204786 -1 0
1;
#X obj 1 0 tgl 15 0 empty empty ^ 2 13 0 20 -228856 -204786 -1 0 1
;
#X obj 497 185 tgl 15 0 empty empty ^ 2 13 0 20 -228856 -204786 -1
0 1;
#X obj 0 185 tgl 15 0 empty empty ~ 2 7 0 20 -228856 -204786 -1 0 1
;
#X text 437 183 controle;
#X text 970 183 sec;
#X floatatom 747 397 5 0 0 0 - - -;
#X obj 1399 727 snapshot~;
#X floatatom 1399 751 5 0 0 0 - - -;
#X msg 1296 769 start \$1;
#X floatatom 948 511 5 0 0 0 - - -;
#X obj 948 486 f;
#X obj 973 486 + 1;
#X obj 948 460 bng 15 250 50 0 empty empty empty 17 7 0 10 -262144
-1 -1;
#X msg 909 467 0;
#X obj 948 569 bng 15 250 50 0 empty empty empty 17 7 0 10 -262144
-1 -1;
#X msg 1376 781 stop;
#X obj 1376 618 tgl 32 0 empty empty smpl 17 7 0 10 -232576 -1 -1 0
1;
#X obj 1376 694 sel 0 1;
#X obj 1265 356 loadbang;
#X obj 1007 584 timer;
#X floatatom 1007 609 5 0 0 0 - - -;
#X obj 1007 631 / 1000;
#X msg 797 368 60;
#X obj 968 569 bng 15 250 50 0 empty empty empty 17 7 0 10 -262144
-1 -1;
#X obj 1203 394 bng 32 250 50 0 empty empty reset 17 7 0 10 -232576
-1 -1;
#X obj 1236 721 spigot;
#X obj 1218 641 * 1000;
#X obj 1186 682 metro;
#X msg 1186 660 1;
#X obj 1186 706 bng 15 250 50 0 empty empty empty 17 7 0 10 -262144
-1 -1;
#X obj 948 539 sel 1 2 3;
#X msg 1236 750 O;
#X msg 797 326 0;
#X obj 797 347 del 1;
#X msg 1265 375 \; pd dsp 1;
#X obj 948 431 del 1;
#X obj 1223 259 tgl 32 0 empty empty dub 17 7 0 10 -232576 -1 -1 0
1;
#X obj 1275 661 tgl 32 0 empty empty feedback 17 7 0 10 -232576 -1
-1 0 1;
#X floatatom 1218 618 5 0 0 0 - - -;
#X msg 1186 618 0;
#X obj 1203 330 +;
#X obj 1203 354 sel 2;
#X obj 1296 800 tabwrite~ SAMPLE3;
#X obj 694 508 array size SAMPLE3;
#X obj 913 626 * 48;
#X obj 740 427 * 48000;
#X obj 43 786 tabread~ SAMPLE3;
#X msg 513 311 read -resize \$1 SAMPLE3;
#X obj 710 3 tgl 15 0 empty empty dub 17 7 0 10 -228856 -1 -1 0 1;
#X connect 0 0 14 0;
#X connect 0 0 89 0;
#X connect 1 0 10 0;
#X connect 3 0 27 0;
#X connect 4 0 5 0;
#X connect 4 0 35 0;
#X connect 5 0 93 0;
#X connect 6 0 3 0;
#X connect 7 0 40 0;
#X connect 10 0 11 0;
#X connect 12 0 18 0;
#X connect 12 0 28 0;
#X connect 13 0 16 0;
#X connect 14 0 20 0;
#X connect 14 0 26 1;
#X connect 14 0 28 1;
#X connect 14 0 29 0;
#X connect 15 0 3 1;
#X connect 16 0 19 0;
#X connect 17 0 16 0;
#X connect 18 0 17 0;
#X connect 18 0 16 1;
#X connect 19 0 20 1;
#X connect 19 0 21 0;
#X connect 20 0 1 0;
#X connect 20 0 15 0;
#X connect 21 0 20 0;
#X connect 22 0 24 0;
#X connect 23 0 39 0;
#X connect 24 0 26 0;
#X connect 25 0 23 0;
#X connect 26 0 8 0;
#X connect 27 0 22 0;
#X connect 27 0 92 0;
#X connect 28 0 27 1;
#X connect 29 0 28 0;
#X connect 30 0 7 0;
#X connect 31 0 12 0;
#X connect 32 0 13 0;
#X connect 33 0 37 0;
#X connect 33 0 62 0;
#X connect 34 0 35 0;
#X connect 34 0 70 0;
#X connect 35 0 32 0;
#X connect 35 0 31 0;
#X connect 36 0 88 0;
#X connect 37 0 35 0;
#X connect 38 0 10 0;
#X connect 39 0 22 0;
#X connect 40 0 6 0;
#X connect 51 0 91 0;
#X connect 52 0 53 0;
#X connect 53 0 54 0;
#X connect 54 0 88 0;
#X connect 55 0 76 0;
#X connect 56 0 57 0;
#X connect 56 0 55 0;
#X connect 57 0 56 1;
#X connect 58 0 56 0;
#X connect 59 0 56 0;
#X connect 60 0 65 0;
#X connect 60 0 77 0;
#X connect 61 0 88 0;
#X connect 62 0 63 0;
#X connect 62 0 81 0;
#X connect 62 0 83 0;
#X connect 62 0 86 0;
#X connect 63 0 61 0;
#X connect 63 1 52 0;
#X connect 64 0 70 0;
#X connect 64 0 80 0;
#X connect 65 0 66 0;
#X connect 66 0 67 0;
#X connect 66 0 90 0;
#X connect 67 0 84 0;
#X connect 67 0 10 0;
#X connect 67 0 51 0;
#X connect 68 0 51 0;
#X connect 69 0 65 1;
#X connect 70 0 85 0;
#X connect 70 0 59 0;
#X connect 70 0 78 0;
#X connect 71 0 77 0;
#X connect 72 0 73 1;
#X connect 72 0 74 0;
#X connect 73 0 75 0;
#X connect 74 0 73 0;
#X connect 75 0 71 0;
#X connect 76 0 60 0;
#X connect 76 1 69 0;
#X connect 77 0 54 0;
#X connect 78 0 51 0;
#X connect 78 0 79 0;
#X connect 79 0 68 0;
#X connect 81 0 58 0;
#X connect 82 0 86 1;
#X connect 83 0 71 1;
#X connect 84 0 72 0;
#X connect 85 0 73 0;
#X connect 86 0 87 0;
#X connect 87 0 70 0;
#X connect 90 0 14 0;
#X connect 90 0 89 0;
#X connect 91 0 89 0;
#X connect 92 0 9 0;
#X connect 93 0 0 0;
#X connect 94 0 82 0;
#X coords 0 1 100 -1 1010 200 1 0 0;
#X restore 814 535 graph;
#X text 52 473 + mode decoupe inverse;
#X obj 1850 507 adc~;
#X connect 2 0 41 0;
#X connect 4 0 5 0;
#X connect 5 0 6 0;
#X connect 7 0 8 0;
#X connect 16 0 19 0;
#X connect 16 1 18 0;
#X connect 17 0 16 0;
#X connect 19 0 18 0;
#X connect 41 0 10 0;
#X connect 41 0 10 2;
#X connect 41 1 2 0;
#X connect 43 0 41 1;
#X connect 43 1 41 1;
