#N canvas -11 -11 1920 1016 12;
#X obj 323 250 / 60;
#X floatatom 323 226 5 0 0 0 - - -;
#X msg 323 299 48000;
#X obj 323 324 /;
#X obj 323 274 t b f;
#X obj 323 379 *;
#X floatatom 527 160 5 0 0 0 - - -;
#X floatatom 323 358 5 0 0 0 - - -;
#X obj 1271 323 phasor~;
#X floatatom 1328 242 5 0 0 0 - - -;
#N canvas 0 50 450 250 (subpatch) 0;
#X array SAMPLE 2.43168e+006 float 0;
#X coords 0 0.5 2.43168e+006 -0.5 200 200 1 0 0;
#X restore 1522 272 graph;
#X obj 1310 342 *~;
#X obj 1328 298 * 48000;
#X msg 1271 260 1;
#X obj 1271 299 /;
#X obj 21 115 bng 15 250 50 0 empty empty empty 17 7 0 10 -232576 -1
-1;
#X obj 21 160 openpanel;
#X obj 21 208 soundfiler;
#X floatatom 21 232 5 0 0 0 - - -;
#X obj 1310 394 tabread~ SAMPLE, f 9;
#X msg 21 184 read -resize \$1 SAMPLE;
#X obj 21 260 array size SAMPLE;
#N canvas 1131 276 742 606 (subpatch) 0;
#X msg 125 302 stop;
#X msg 102 279 open \$1.mp3 \, start;
#X obj 102 235 f;
#X obj 127 235 + 1;
#X msg 127 216 0;
#X obj 102 215 bng 15 250 50 0 empty empty empty 17 7 0 10 -262144
-1 -1;
#X floatatom 102 257 5 0 0 0 - - -;
#X obj 9 98 tgl 32 0 empty empty empty 17 7 0 10 -262144 -1 -1 0 1
;
#X obj 102 190 sel 1 0;
#X obj 102 344 writesf~ 2;
#X obj 363 300 *~;
#X obj 339 323 dac~;
#X obj 338 300 *~;
#X obj 9 16 vsl 32 64 0 2 0 0 empty empty empty 0 -9 0 10 -262144 -1
-1 5100 1;
#X obj 363 229 inlet~;
#X obj 339 206 inlet~;
#X msg 9 79;
#X connect 0 0 9 0;
#X connect 1 0 9 0;
#X connect 2 0 3 0;
#X connect 2 0 6 0;
#X connect 3 0 2 1;
#X connect 4 0 2 0;
#X connect 5 0 2 0;
#X connect 6 0 1 0;
#X connect 7 0 8 0;
#X connect 8 0 5 0;
#X connect 8 1 0 0;
#X connect 10 0 11 1;
#X connect 12 0 11 0;
#X connect 13 0 10 1;
#X connect 13 0 12 1;
#X connect 14 0 9 1;
#X connect 14 0 10 0;
#X connect 15 0 9 0;
#X connect 15 0 12 0;
#X coords 0 1 100 -1 50 140 1 0 0;
#X restore 1311 471 graph;
#X obj 1328 215 / 48000;
#X obj 1407 388 snapshot~;
#X floatatom 1407 411 15 0 0 0 - - -;
#X obj 1309 368 +~;
#X obj 1407 453 /;
#X obj 1523 472 hsl 200 15 0 1 0 0 empty empty empty -2 -8 0 10 -262144
-1 -1 49 1;
#X obj 495 289 bng 15 250 50 0 empty empty empty 17 7 0 10 -262144
-1 -1;
#X obj 495 270 metro;
#X obj 527 182 / 48;
#X obj 495 245 tgl 16 0 empty empty empty 17 7 0 10 -232576 -1 -1 1
1;
#X obj 1407 365 metro 100;
#X obj 1407 346 tgl 15 0 empty empty empty 17 7 0 10 -262144 -1 -1
1 1;
#X obj 374 170 vradio 30 1 0 4 empty empty empty 0 -8 0 10 -232576
-1 -1 1;
#X obj 16 23 loadbang;
#X msg 16 45 \; pd dsp 1;
#X text 414 206 beat;
#X text 414 267 bar;
#X obj 231 312 timer;
#X obj 231 292 bng 15 250 50 0 empty empty empty 17 7 0 10 -262144
-1 -1;
#X obj 263 292 bng 15 250 50 0 empty empty empty 17 7 0 10 -262144
-1 -1;
#X obj 231 209 f;
#X obj 256 209 + 1;
#X msg 236 188 0;
#X floatatom 231 231 5 0 0 0 - - -;
#X obj 231 106 bng 60 250 50 0 empty empty empty 17 7 0 10 -232576
-1 -1;
#X floatatom 277 274 5 0 0 0 - - -;
#X floatatom 231 274 5 0 0 0 - - -;
#X obj 231 252 moses 2;
#X obj 231 335 /;
#X floatatom 231 427 5 0 0 0 - - -;
#X msg 231 379 60000;
#X obj 231 403 /;
#X obj 236 166 del 2000;
#X obj 231 357 t b f;
#X obj 323 404 spigot;
#X msg 362 378 1;
#X text 228 87 tap tempo;
#X msg 512 304 0;
#X msg 1407 323 1;
#N canvas 0 50 450 250 (subpatch) 0;
#X array SEQUENCE 4 float 3;
#A 0 0.835679 0.576908 0.199478 0;
#X coords 0 1 4 0 200 140 1 0 0;
#X restore 927 708 graph;
#X obj 629 740 array size SEQUENCE;
#X obj 594 853 tabread SEQUENCE;
#X floatatom 594 903 5 0 0 0 - - -;
#X obj 594 558 f;
#X obj 619 558 + 1;
#X obj 594 538 bng 15 250 50 0 empty empty empty 17 7 0 10 -262144
-1 -1;
#X floatatom 594 580 5 0 0 0 - - -;
#X floatatom 594 808 5 0 0 0 - - -;
#X floatatom 619 712 5 0 0 0 - - -;
#X obj 413 891 tabwrite SEQUENCE;
#X floatatom 499 873 5 0 0 0 - - -;
#X obj 413 822 bng 15 250 50 0 empty empty empty 17 7 0 10 -262144
-1 -1;
#X obj 412 803 metro 1;
#X obj 412 730 sel;
#X obj 412 758 bng 15 250 50 0 empty empty empty 17 7 0 10 -262144
-1 -1;
#X obj 412 785 tgl 15 0 empty empty empty 17 7 0 10 -262144 -1 -1 0
1;
#X obj 338 854 f;
#X obj 363 854 + 1;
#X msg 339 831 0;
#X obj 338 811 bng 15 250 50 0 empty empty empty 17 7 0 10 -262144
-1 -1;
#X obj 339 773 tgl 15 0 empty empty empty 17 7 0 10 -262144 -1 -1 0
1;
#X obj 338 730 bng 16 250 50 0 empty empty empty 17 7 0 10 -262144
-1 -1;
#X obj 338 876 - 1;
#X obj 339 750 del 1;
#X obj 339 788 metro 1;
#X obj 929 849 hsl 200 15 0 1 0 0 empty empty empty -2 -8 0 10 -262144
-1 -1 0 1;
#X obj 601 830 /;
#X obj 696 628 loadbang;
#X obj 374 295 sel 0 1 2 3;
#X msg 392 320 1;
#X msg 411 320 2;
#X msg 429 320 4;
#X msg 374 320 0.5;
#X text 412 176 1/2beat;
#X text 412 236 2beat;
#X floatatom 323 428 5 0 0 0 - - -;
#X floatatom 1328 193 5 0 0 0 - - -;
#X obj 323 198 r BPM;
#X obj 231 452 s BPM;
#X obj 323 491 s SIZE;
#X obj 527 122 r SIZE;
#X obj 1328 151 r SIZE;
#X obj 21 289 s SMPLSIZE;
#X obj 1335 170 r SMPLSIZE;
#X obj 1060 330 r SMPLSIZE;
#X obj 1425 434 r SMPLSIZE;
#X obj 1407 301 r START;
#X obj 28 137 s START;
#X obj 594 956 s SEQ;
#X obj 1021 330 r SEQ;
#X obj 495 337 s CLOCK;
#X obj 594 515 r CLOCK;
#X obj 1042 349 *;
#X obj 413 841 random 1e+006;
#X obj 413 866 / 1e+006;
#X obj 912 921 line \$1 100;
#X obj 912 707 vsl 15 140 0 1 0 0 empty empty empty 0 -9 0 10 -262144
-1 -1 0 1;
#X obj 594 730 %;
#X obj 333 114 sortie durée aussi;
#X obj 1550 512 line pour pas clip;
#X obj 796 833 random 1e+006;
#X obj 796 861 / 1e+006;
#X floatatom 796 885 5 0 0 0 - - -;
#X obj 795 509 bng 30 250 50 0 empty empty empty 17 7 0 10 -232576
-1 -1;
#X obj 735 479 hradio 30 1 0 3 empty empty empty 0 -8 0 10 -232576
-1 -1 1;
#X obj 696 674 hradio 15 1 0 12 empty empty empty 0 -8 0 10 -232576
-1 -1 3;
#X obj 696 693 + 1;
#X msg 696 650 3;
#X obj 735 509 bng 30 250 50 0 empty empty empty 17 7 0 10 -232576
-1 -1;
#X obj 594 620 spigot;
#X obj 625 605 tgl 15 0 empty empty empty 17 7 0 10 -262144 -1 -1 0
1;
#X msg 729 586 1;
#X msg 704 586 0;
#X msg 779 586 0;
#X msg 804 586 1;
#X obj 857 620 spigot;
#X obj 888 605 tgl 15 0 empty empty empty 17 7 0 10 -262144 -1 -1 0
1;
#X obj 857 586 r CLOCK;
#X obj 735 567 sel 0 1 2;
#X msg 754 586 0;
#X text 738 460 seq/off/rdm;
#X obj 595 436 loadbang;
#X msg 595 460 1;
#X msg 495 173 1;
#X obj 374 339 t b b f;
#X obj 333 89 pak tt ça;
#X connect 0 0 4 0;
#X connect 1 0 0 0;
#X connect 2 0 3 0;
#X connect 3 0 7 0;
#X connect 4 0 2 0;
#X connect 4 1 3 1;
#X connect 5 0 57 0;
#X connect 6 0 31 0;
#X connect 7 0 5 0;
#X connect 8 0 11 0;
#X connect 9 0 12 0;
#X connect 9 0 14 1;
#X connect 9 0 13 0;
#X connect 11 0 26 0;
#X connect 12 0 11 1;
#X connect 13 0 14 0;
#X connect 14 0 8 0;
#X connect 15 0 16 0;
#X connect 15 0 110 0;
#X connect 16 0 20 0;
#X connect 17 0 18 0;
#X connect 18 0 21 0;
#X connect 18 0 105 0;
#X connect 19 0 22 0;
#X connect 19 0 22 1;
#X connect 20 0 17 0;
#X connect 23 0 9 0;
#X connect 24 0 25 0;
#X connect 25 0 27 0;
#X connect 26 0 24 0;
#X connect 26 0 19 0;
#X connect 27 0 28 0;
#X connect 29 0 60 0;
#X connect 29 0 113 0;
#X connect 30 0 29 0;
#X connect 31 0 30 1;
#X connect 32 0 30 0;
#X connect 33 0 24 0;
#X connect 34 0 33 0;
#X connect 35 0 91 0;
#X connect 36 0 37 0;
#X connect 40 0 51 0;
#X connect 41 0 40 0;
#X connect 42 0 40 1;
#X connect 43 0 44 0;
#X connect 43 0 46 0;
#X connect 44 0 43 1;
#X connect 45 0 43 0;
#X connect 46 0 50 0;
#X connect 46 0 51 1;
#X connect 47 0 55 0;
#X connect 47 0 43 0;
#X connect 48 0 42 0;
#X connect 49 0 41 0;
#X connect 50 0 49 0;
#X connect 50 1 48 0;
#X connect 51 0 56 0;
#X connect 52 0 101 0;
#X connect 53 0 54 0;
#X connect 54 0 52 0;
#X connect 55 0 45 0;
#X connect 56 0 53 0;
#X connect 56 1 54 1;
#X connect 57 0 98 0;
#X connect 58 0 57 1;
#X connect 60 0 8 1;
#X connect 61 0 34 0;
#X connect 64 0 65 0;
#X connect 65 0 111 0;
#X connect 65 0 118 0;
#X connect 66 0 67 0;
#X connect 66 0 69 0;
#X connect 67 0 66 1;
#X connect 68 0 66 0;
#X connect 69 0 132 0;
#X connect 70 0 64 0;
#X connect 70 0 89 0;
#X connect 71 0 63 0;
#X connect 71 0 89 1;
#X connect 71 0 120 1;
#X connect 71 0 76 1;
#X connect 73 0 72 1;
#X connect 74 0 116 0;
#X connect 75 0 74 0;
#X connect 76 0 77 0;
#X connect 77 0 78 0;
#X connect 77 0 83 0;
#X connect 77 0 70 0;
#X connect 78 0 75 0;
#X connect 79 0 80 0;
#X connect 79 0 73 0;
#X connect 79 0 85 0;
#X connect 80 0 79 1;
#X connect 81 0 79 0;
#X connect 82 0 79 0;
#X connect 83 0 87 0;
#X connect 84 0 78 0;
#X connect 84 0 86 0;
#X connect 84 0 81 0;
#X connect 85 0 76 0;
#X connect 86 0 83 0;
#X connect 87 0 82 0;
#X connect 89 0 88 0;
#X connect 90 0 130 0;
#X connect 91 0 95 0;
#X connect 91 1 92 0;
#X connect 91 2 93 0;
#X connect 91 3 94 0;
#X connect 92 0 147 0;
#X connect 93 0 147 0;
#X connect 94 0 147 0;
#X connect 95 0 147 0;
#X connect 98 0 102 0;
#X connect 99 0 23 0;
#X connect 100 0 1 0;
#X connect 103 0 6 0;
#X connect 103 0 146 0;
#X connect 104 0 99 0;
#X connect 106 0 99 0;
#X connect 107 0 115 1;
#X connect 108 0 27 1;
#X connect 109 0 61 0;
#X connect 112 0 115 0;
#X connect 114 0 68 0;
#X connect 115 0 26 1;
#X connect 116 0 117 0;
#X connect 117 0 72 0;
#X connect 118 0 119 0;
#X connect 120 0 70 0;
#X connect 123 0 124 0;
#X connect 124 0 125 0;
#X connect 125 0 65 0;
#X connect 126 0 123 0;
#X connect 127 0 141 0;
#X connect 128 0 129 0;
#X connect 129 0 71 0;
#X connect 130 0 128 0;
#X connect 131 0 84 0;
#X connect 132 0 120 0;
#X connect 133 0 132 1;
#X connect 134 0 133 0;
#X connect 135 0 139 0;
#X connect 136 0 133 0;
#X connect 137 0 139 0;
#X connect 138 0 126 0;
#X connect 139 0 138 1;
#X connect 140 0 138 0;
#X connect 141 0 134 0;
#X connect 141 0 135 0;
#X connect 141 1 142 0;
#X connect 141 2 137 0;
#X connect 141 2 136 0;
#X connect 142 0 133 0;
#X connect 142 0 139 0;
#X connect 144 0 145 0;
#X connect 145 0 127 0;
#X connect 146 0 32 0;
#X connect 147 0 7 0;
#X connect 147 1 58 0;
#X connect 147 2 5 1;
