#N canvas -11 -11 1920 1016 12;
#N canvas 0 50 450 250 (subpatch) 0;
#X array forme 100 float 3;
#A 0 0 0 0 0 0 0 0 0 0 0 0 0 0 0 0 0 0 0 0 0 0 0 0 0 0 0 0 0 0 0 0
0 0 0 0 0 0 0 0 0 0 0 0 0 0 0 0 0 0 0 0 0 0 0 0 0 0 0 0 0 0 0 0 0 0
0 0 0 0 0 0 0 0 0 0 0 0 0 0 0 0 0 0 0 0 0 0 0 0 0 0 0 0 0 0 0 0 0 0
0;
#X coords 0 1 100 -1 200 140 1;
#X restore 977 482 graph;
#X obj 952 649 tabwrite~ forme;
#X obj 952 545 bng 15 250 50 0 empty empty empty 17 7 0 10 -262144
-1 -1;
#X obj 952 421 tgl 16 0 empty empty empty 17 7 0 10 -232576 -1 -1 1
1;
#X obj 1358 502 tabread~ forme;
#X obj 1358 443 phasor~;
#X obj 1358 472 *~ 100;
#X floatatom 1358 415 5 0 0 0 - - -;
#X obj 952 443 metro 100;
#X obj 1433 234 *~;
#X floatatom 1433 184 0 0 0 0 - - -;
#X floatatom 1363 184 0 0 0 0 - - -;
#X obj 1363 254 +~;
#X floatatom 1481 215 0 0 0 0 - - -;
#X obj 1363 280 osc~;
#X obj 1433 209 osc~;
#X obj 935 278 +~;
#X obj 967 245 osc~;
#X floatatom 921 197 5 0 0 0 - - -;
#X obj 921 245 osc~;
#X obj 967 215 + 0.2;
#X obj 999 167 vsl 15 32 0 1 0 0 empty empty empty 0 -9 0 10 -232576
-1 -1 0 1;
#X floatatom 564 463 5 0 0 0 - - -;
#X obj 504 449 bng 32 250 50 0 empty empty empty 17 7 0 10 -232576
-1 -1;
#X obj 504 511 pack 1 \$2;
#X floatatom 663 529 5 0 0 0 - - -;
#X obj 603 531 bng 15 250 50 0 empty empty empty 17 7 0 10 -262144
-1 -1;
#X obj 603 557 pack 0 \$2;
#X obj 485 225 osc~;
#X floatatom 485 197 5 0 0 0 - - -;
#X obj 488 172 hsl 128 15 0 1000 0 0 empty empty empty -2 -8 0 10 -232576
-1 -1 3500 1;
#X text 916 179 fréquence;
#X text 1018 170 décallage;
#X text 520 225 oscillateur;
#X text 527 196 fréquence;
#X text 1431 165 modulation;
#X text 562 419 attaque;
#X text 660 419 descente;
#X obj 603 481 delay;
#X text 1397 415 fréquence;
#X text 1464 503 lit le taleau;
#X text 482 139 -----------------------------------------------------
;
#X obj 41 873 loadbang;
#X msg 41 895 \; pd dsp 1;
#X text 112 897 audio ON (console), f 10;
#N canvas -11 -11 1920 1016 (subpatch) 0;
#X obj 6 149 credits;
#X obj 722 314 1;
#X msg 722 347 2;
#X floatatom 720 381 5 0 0 0 - - -;
#X text 666 314 ctrl 1;
#X text 666 347 ctrl 2;
#X text 666 381 ctrl 3;
#X obj 1440 268 *;
#X obj 1440 364 *~;
#X obj 1440 303 *;
#X obj 1440 329 *;
#X text 1315 690 aide > navigateur d'aide > PureData/;
#X obj 1218 669 guide html;
#X text 1314 669 aide > aide html;
#X obj 1218 691 patch exemple;
#X floatatom 391 659 5 0 0 0 - - -;
#X floatatom 331 659 5 0 0 0 - - -;
#X floatatom 352 742 5 0 0 0 - - -;
#X msg 391 622 1;
#X obj 1218 637 POUR APPROFONDIR;
#X text 664 259 click droit (élement) > aide : informations et exemples
;
#X obj 148 284 CTRL E;
#X text 1472 347 ~ signal audio (continu);
#X text 1479 285 signal numérique;
#X msg 1283 303 objet;
#X text 1212 315 sortie ->;
#X text 1218 294 entré ->;
#X obj 1211 239 BRANCHEMENT;
#X obj 331 592 bng 15 250 50 0 empty empty empty 17 7 0 10 -262144
-1 -1;
#X obj 722 412 bng 15 250 50 0 empty empty empty 17 7 0 10 -262144
-1 -1;
#X text 667 410 ctrl B;
#X text 769 408 boutton : déclencheur;
#X text 766 381 number box : interactible;
#X text 759 346 message box : figé;
#X text 762 317 object box : click droit (vide) > aide = liste;
#X obj 150 528 EXEMPLE : ordre d'operation;
#X obj 442 355 bng 30 250 50 0 empty empty empty 17 7 0 10 -262144
-1 -1;
#X text 171 308 <-> mode performance (interagir);
#X obj 352 698 -;
#X msg 331 622 2;
#X text 675 627 EXERCICE : faire le calcul en interagissant uniquement
avec l'entrée de droite, f 29;
#X text 144 368 EXERCICE : tester les modes sur le boutton;
#X text 200 283 mode edition (selectionner deplacer), f 37;
#X text 658 205 -----------------------------------------------------------------------
, f 72;
#X text 212 690 entré de gauche -> = déclencheur, f 18;
#X text 382 689 <- entré de droite = "inerte", f 18;
#X text 432 659 <- interactible;
#N canvas 1015 180 450 163 (subpatch) 0;
#X floatatom 328 129 5 0 0 0 - - -;
#X floatatom 268 129 5 0 0 0 - - -;
#X floatatom 289 212 5 0 0 0 - - -;
#X msg 328 92 1;
#X obj 268 62 bng 15 250 50 0 empty empty empty 17 7 0 10 -262144 -1
-1;
#X obj 289 168 -;
#X msg 268 92 2;
#X text 7 25 click droite > ouvrir, f 13;
#X text 212 12 déclanche le signal de gauche quand le signal de droite
varie, f 31;
#X text 7 7 SOLUTION :;
#X connect 0 0 5 1;
#X connect 0 0 4 0;
#X connect 1 0 5 0;
#X connect 3 0 0 0;
#X connect 4 0 6 0;
#X connect 5 0 2 0;
#X connect 6 0 1 0;
#X coords 0 1 100 -1 105 57 1 0 0;
#X restore 675 690 graph;
#X text 658 495 -----------------------------------------------------------------------
, f 72;
#X text 1178 205 -----------------------------------------------------------------------
, f 72;
#X text 1178 495 -----------------------------------------------------------------------
, f 72;
#X text 138 205 -----------------------------------------------------------------------
, f 72;
#X text 138 495 -----------------------------------------------------------------------
, f 72;
#X obj 148 234 EDITION / INTERACTION;
#X obj 666 234 TYPES DE BOX;
#X obj 1438 238 TYPES DE SIGNAUX;
#X text 4 7 TUTO BASICS PUREDATA;
#X text 5 26 click droit > ouvrir;
#X text 1216 403 select > sup;
#X obj 1215 371 DEBRANCHER;
#X connect 7 0 9 0;
#X connect 10 0 8 0;
#X connect 15 0 38 1;
#X connect 16 0 38 0;
#X connect 18 0 15 0;
#X connect 28 0 39 0;
#X connect 38 0 17 0;
#X connect 39 0 16 0;
#X coords 0 1 100 -1 155 52 1 0 0;
#X restore 26 195 graph;
#X obj 29 167 ctrl E = mode edition;
#X obj 30 36 TUTO SYNTHESE;
#X obj 487 864 dac~;
#X obj 658 787 tgl 32 0 empty empty empty 17 7 0 10 -232576 -1 -1 1
1;
#X obj 486 819 *~;
#X obj 486 631 *~;
#X obj 567 439 hsl 64 15 0 200 0 0 empty empty empty -2 -8 0 10 -232576
-1 -1 6300 1;
#X obj 666 439 hsl 64 15 0 400 0 0 empty empty empty -2 -8 0 10 -232576
-1 -1 300 1;
#X text 500 430 trigger;
#X text 1416 443 va de 0 à 1;
#X text 1408 473 x taille du tableau;
#X text 1022 443 trigger le visuel;
#X obj 485 125 OSCILATEUR;
#X text 482 759 -----------------------------------------------------
;
#X obj 485 745 SORTIE SON;
#X text 976 125 (deux fréquences proches additionnées);
#X text 915 139 -----------------------------------------------------
;
#X obj 918 125 BEATING;
#X text 1357 139 -----------------------------------------------------
;
#X obj 1360 125 FREQUENCY MODULATION;
#X text 478 387 -----------------------------------------------------
;
#X obj 481 373 ENVELLOPE;
#X text 915 389 -----------------------------------------------------
;
#X obj 918 375 VISUALISEUR;
#X text 971 419 on/off;
#X text 1355 391 -----------------------------------------------------
;
#X obj 1358 377 FORME D'ONDE;
#X text 692 794 volume on/off;
#X text 522 864 sortie de son;
#X obj 504 576 line~;
#X text 26 51 -----------------------------------------------------
;
#X obj 68 325 +~;
#X text 24 326 synth;
#X text 96 325 synth = mix;
#X text 1357 165 fréquence;
#X text 553 373 (volume/temps);
#X text 934 295 v sortie son;
#X text 1361 297 v sortie son;
#X text 1357 521 v sortie son;
#X text 1452 377 dessiner forme d'onde dans le tableau;
#X text 483 242 v sortie son;
#X text 1391 254 mix;
#X text 1509 216 intensité;
#X text 483 615 ^ entrée son;
#X text 483 649 v sortie son;
#X text 950 630 ^ entrée son;
#X text 483 801 ^ entrée son;
#X connect 2 0 1 0;
#X connect 3 0 8 0;
#X connect 5 0 6 0;
#X connect 6 0 4 0;
#X connect 7 0 5 0;
#X connect 8 0 2 0;
#X connect 9 0 12 1;
#X connect 10 0 15 0;
#X connect 11 0 12 0;
#X connect 12 0 14 0;
#X connect 13 0 9 1;
#X connect 15 0 9 0;
#X connect 17 0 16 1;
#X connect 18 0 19 0;
#X connect 18 0 20 0;
#X connect 19 0 16 0;
#X connect 20 0 17 0;
#X connect 21 0 20 1;
#X connect 22 0 24 1;
#X connect 22 0 38 1;
#X connect 23 0 24 0;
#X connect 23 0 38 0;
#X connect 24 0 75 0;
#X connect 25 0 27 1;
#X connect 26 0 27 0;
#X connect 27 0 75 0;
#X connect 28 0 51 0;
#X connect 29 0 28 0;
#X connect 30 0 29 0;
#X connect 38 0 26 0;
#X connect 42 0 43 0;
#X connect 49 0 50 1;
#X connect 50 0 48 0;
#X connect 50 0 48 1;
#X connect 51 0 50 0;
#X connect 51 0 1 0;
#X connect 52 0 22 0;
#X connect 53 0 25 0;
#X connect 75 0 51 1;
