#N canvas -11 -11 1920 1016 12;
#X obj 704 318 tgl 32 0 empty empty empty 17 7 0 10 -262144 -1 -1 0
1;
#X obj 736 318 tgl 32 0 empty empty empty 17 7 0 10 -228856 -1 -1 0
1;
#X obj 768 318 tgl 32 0 empty empty empty 17 7 0 10 -262144 -1 -1 0
1;
#X obj 800 318 tgl 32 0 empty empty empty 17 7 0 10 -228856 -1 -1 0
1;
#X obj 832 318 tgl 32 0 empty empty empty 17 7 0 10 -262144 -1 -1 0
1;
#X obj 864 318 tgl 32 0 empty empty empty 17 7 0 10 -228856 -1 -1 0
1;
#X obj 896 318 tgl 32 0 empty empty empty 17 7 0 10 -262144 -1 -1 0
1;
#X obj 928 318 tgl 32 0 empty empty empty 17 7 0 10 -262144 -1 -1 0
1;
#X obj 544 318 tgl 32 0 empty empty empty 17 7 0 10 -262144 -1 -1 0
1;
#X obj 608 318 tgl 32 0 empty empty empty 17 7 0 10 -262144 -1 -1 0
1;
#X obj 640 318 tgl 32 0 empty empty empty 17 7 0 10 -228856 -1 -1 0
1;
#X obj 672 318 tgl 32 0 empty empty empty 17 7 0 10 -262144 -1 -1 0
1;
#X obj 502 318 tgl 32 0 empty empty empty 17 7 0 10 -262144 -1 -1 0
1;
#X obj 970 318 tgl 32 0 empty empty empty 17 7 0 10 -262144 -1 -1 0
1;
#X obj 692 643 *~;
#X obj 117 643 *~;
#X obj 247 643 *~;
#X obj 288 643 *~;
#X obj 328 643 *~;
#X obj 368 643 *~;
#X obj 409 643 *~;
#X obj 449 643 *~;
#X obj 489 643 *~;
#X obj 530 643 *~;
#X obj 570 643 *~;
#X obj 610 643 *~;
#X obj 651 643 *~;
#X obj 76 643 *~;
#X obj 410 662 *~ 1;
#N canvas -11 -11 1920 1016 (subpatch) 0;
#X obj 719 138 loadbang;
#X floatatom 2 2 0 0 0 0 - - -;
#X obj 495 625 *~;
#X obj 618 552 line~;
#X floatatom 618 289 0 0 0 0 - - -;
#X obj 618 526 pack 0 200;
#X obj 618 263 r window;
#X obj 495 310 exp;
#X floatatom 495 336 6 0 0 0 - - -;
#X obj 495 426 /;
#X obj 543 360 * 0.001;
#X obj 717 613 line~;
#X obj 717 588 pack 0 200;
#X floatatom 717 537 0 0 0 0 - - -;
#X obj 717 511 r delay;
#X obj 495 651 +~;
#X obj 432 677 cos~;
#X obj 432 704 *~;
#X obj 573 748 +~;
#X obj 559 554 wrap~;
#X obj 654 608 *~;
#X obj 654 660 +~;
#X obj 591 687 cos~;
#X obj 591 714 *~;
#X obj 543 387 t b f;
#X floatatom 495 452 6 0 0 0 - - -;
#X obj 559 527 +~ 0.5;
#X obj 432 625 -~ 0.5;
#X obj 432 651 *~ 0.5;
#X obj 591 607 -~ 0.5;
#X obj 591 659 *~ 0.5;
#X obj 495 363 - 1;
#X obj 495 284 * 0.05776;
#X obj 495 389 * -1;
#X text 448 330 speed;
#X text 441 344 change;
#X text 423 443 tape head;
#X obj 495 483 phasor~;
#X obj 717 564 max 1.5;
#X text 720 470 delay;
#X text 717 488 (msec);
#X obj 618 316 max 1;
#X text 423 456 rotation freq, f 9;
#X text 651 289 <= window (msec);
#X text 386 239 transposition;
#X text 385 252 (halftones) =>;
#X obj 495 677 vd~ Pitchshift;
#X obj 654 689 vd~ Pitchshift;
#X obj 575 823 outlet~;
#X msg 719 164 4;
#X connect 0 0 49 0;
#X connect 1 0 32 0;
#X connect 2 0 15 0;
#X connect 3 0 2 1;
#X connect 3 0 20 1;
#X connect 4 0 41 0;
#X connect 5 0 3 0;
#X connect 6 0 4 0;
#X connect 7 0 8 0;
#X connect 8 0 31 0;
#X connect 9 0 25 0;
#X connect 10 0 24 0;
#X connect 11 0 15 1;
#X connect 11 0 21 1;
#X connect 12 0 11 0;
#X connect 13 0 38 0;
#X connect 14 0 13 0;
#X connect 15 0 46 0;
#X connect 16 0 17 0;
#X connect 17 0 18 0;
#X connect 18 0 48 0;
#X connect 19 0 20 0;
#X connect 19 0 29 0;
#X connect 20 0 21 0;
#X connect 21 0 47 0;
#X connect 22 0 23 0;
#X connect 23 0 18 1;
#X connect 24 0 9 0;
#X connect 24 1 9 1;
#X connect 25 0 37 0;
#X connect 26 0 19 0;
#X connect 27 0 28 0;
#X connect 28 0 16 0;
#X connect 29 0 30 0;
#X connect 30 0 22 0;
#X connect 31 0 33 0;
#X connect 32 0 7 0;
#X connect 33 0 9 0;
#X connect 37 0 2 0;
#X connect 37 0 27 0;
#X connect 37 0 26 0;
#X connect 38 0 12 0;
#X connect 41 0 10 0;
#X connect 41 0 5 0;
#X connect 46 0 17 1;
#X connect 47 0 23 1;
#X connect 49 0 1 0;
#X coords 0 1 100 -1 29 96 1 0 0;
#X restore 328 496 graph;
#X obj 116 467 delwrite~ Pitchshift 5000;
#X obj 117 419 adc~;
#X obj 410 706 dac~;
#N canvas -11 -11 1920 1016 (subpatch) 0;
#X obj 719 138 loadbang;
#X floatatom 2 2 0 0 0 0 - - -;
#X obj 495 625 *~;
#X obj 618 552 line~;
#X floatatom 618 289 0 0 0 0 - - -;
#X obj 618 526 pack 0 200;
#X obj 618 263 r window;
#X obj 495 310 exp;
#X floatatom 495 336 6 0 0 0 - - -;
#X obj 495 426 /;
#X obj 543 360 * 0.001;
#X obj 717 613 line~;
#X obj 717 588 pack 0 200;
#X floatatom 717 537 0 0 0 0 - - -;
#X obj 717 511 r delay;
#X obj 495 651 +~;
#X obj 432 677 cos~;
#X obj 432 704 *~;
#X obj 573 748 +~;
#X obj 559 554 wrap~;
#X obj 654 608 *~;
#X obj 654 660 +~;
#X obj 591 687 cos~;
#X obj 591 714 *~;
#X obj 543 387 t b f;
#X floatatom 495 452 6 0 0 0 - - -;
#X obj 559 527 +~ 0.5;
#X obj 432 625 -~ 0.5;
#X obj 432 651 *~ 0.5;
#X obj 591 607 -~ 0.5;
#X obj 591 659 *~ 0.5;
#X obj 495 363 - 1;
#X obj 495 284 * 0.05776;
#X obj 495 389 * -1;
#X text 448 330 speed;
#X text 441 344 change;
#X text 423 443 tape head;
#X obj 495 483 phasor~;
#X obj 717 564 max 1.5;
#X text 720 470 delay;
#X text 717 488 (msec);
#X obj 618 316 max 1;
#X text 423 456 rotation freq, f 9;
#X text 651 289 <= window (msec);
#X text 386 239 transposition;
#X text 385 252 (halftones) =>;
#X obj 495 677 vd~ Pitchshift;
#X obj 654 689 vd~ Pitchshift;
#X obj 575 823 outlet~;
#X msg 719 164 7;
#X connect 0 0 49 0;
#X connect 1 0 32 0;
#X connect 2 0 15 0;
#X connect 3 0 2 1;
#X connect 3 0 20 1;
#X connect 4 0 41 0;
#X connect 5 0 3 0;
#X connect 6 0 4 0;
#X connect 7 0 8 0;
#X connect 8 0 31 0;
#X connect 9 0 25 0;
#X connect 10 0 24 0;
#X connect 11 0 15 1;
#X connect 11 0 21 1;
#X connect 12 0 11 0;
#X connect 13 0 38 0;
#X connect 14 0 13 0;
#X connect 15 0 46 0;
#X connect 16 0 17 0;
#X connect 17 0 18 0;
#X connect 18 0 48 0;
#X connect 19 0 20 0;
#X connect 19 0 29 0;
#X connect 20 0 21 0;
#X connect 21 0 47 0;
#X connect 22 0 23 0;
#X connect 23 0 18 1;
#X connect 24 0 9 0;
#X connect 24 1 9 1;
#X connect 25 0 37 0;
#X connect 26 0 19 0;
#X connect 27 0 28 0;
#X connect 28 0 16 0;
#X connect 29 0 30 0;
#X connect 30 0 22 0;
#X connect 31 0 33 0;
#X connect 32 0 7 0;
#X connect 33 0 9 0;
#X connect 37 0 2 0;
#X connect 37 0 27 0;
#X connect 37 0 26 0;
#X connect 38 0 12 0;
#X connect 41 0 10 0;
#X connect 41 0 5 0;
#X connect 46 0 17 1;
#X connect 47 0 23 1;
#X connect 49 0 1 0;
#X coords 0 1 100 -1 29 96 1 0 0;
#X restore 449 496 graph;
#N canvas -11 -11 1920 1016 (subpatch) 0;
#X obj 719 138 loadbang;
#X floatatom 2 2 0 0 0 0 - - -;
#X obj 495 625 *~;
#X obj 618 552 line~;
#X floatatom 618 289 0 0 0 0 - - -;
#X obj 618 526 pack 0 200;
#X obj 618 263 r window;
#X obj 495 310 exp;
#X floatatom 495 336 6 0 0 0 - - -;
#X obj 495 426 /;
#X obj 543 360 * 0.001;
#X obj 717 613 line~;
#X obj 717 588 pack 0 200;
#X floatatom 717 537 0 0 0 0 - - -;
#X obj 717 511 r delay;
#X obj 495 651 +~;
#X obj 432 677 cos~;
#X obj 432 704 *~;
#X obj 573 748 +~;
#X obj 559 554 wrap~;
#X obj 654 608 *~;
#X obj 654 660 +~;
#X obj 591 687 cos~;
#X obj 591 714 *~;
#X obj 543 387 t b f;
#X floatatom 495 452 6 0 0 0 - - -;
#X obj 559 527 +~ 0.5;
#X obj 432 625 -~ 0.5;
#X obj 432 651 *~ 0.5;
#X obj 591 607 -~ 0.5;
#X obj 591 659 *~ 0.5;
#X obj 495 363 - 1;
#X obj 495 284 * 0.05776;
#X obj 495 389 * -1;
#X text 448 330 speed;
#X text 441 344 change;
#X text 423 443 tape head;
#X obj 495 483 phasor~;
#X obj 717 564 max 1.5;
#X text 720 470 delay;
#X text 717 488 (msec);
#X obj 618 316 max 1;
#X text 423 456 rotation freq, f 9;
#X text 651 289 <= window (msec);
#X text 386 239 transposition;
#X text 385 252 (halftones) =>;
#X obj 495 677 vd~ Pitchshift;
#X obj 654 689 vd~ Pitchshift;
#X obj 575 823 outlet~;
#X msg 719 164 13;
#X connect 0 0 49 0;
#X connect 1 0 32 0;
#X connect 2 0 15 0;
#X connect 3 0 2 1;
#X connect 3 0 20 1;
#X connect 4 0 41 0;
#X connect 5 0 3 0;
#X connect 6 0 4 0;
#X connect 7 0 8 0;
#X connect 8 0 31 0;
#X connect 9 0 25 0;
#X connect 10 0 24 0;
#X connect 11 0 15 1;
#X connect 11 0 21 1;
#X connect 12 0 11 0;
#X connect 13 0 38 0;
#X connect 14 0 13 0;
#X connect 15 0 46 0;
#X connect 16 0 17 0;
#X connect 17 0 18 0;
#X connect 18 0 48 0;
#X connect 19 0 20 0;
#X connect 19 0 29 0;
#X connect 20 0 21 0;
#X connect 21 0 47 0;
#X connect 22 0 23 0;
#X connect 23 0 18 1;
#X connect 24 0 9 0;
#X connect 24 1 9 1;
#X connect 25 0 37 0;
#X connect 26 0 19 0;
#X connect 27 0 28 0;
#X connect 28 0 16 0;
#X connect 29 0 30 0;
#X connect 30 0 22 0;
#X connect 31 0 33 0;
#X connect 32 0 7 0;
#X connect 33 0 9 0;
#X connect 37 0 2 0;
#X connect 37 0 27 0;
#X connect 37 0 26 0;
#X connect 38 0 12 0;
#X connect 41 0 10 0;
#X connect 41 0 5 0;
#X connect 46 0 17 1;
#X connect 47 0 23 1;
#X connect 49 0 1 0;
#X coords 0 1 100 -1 29 96 1 0 0;
#X restore 692 496 graph;
#N canvas -11 -11 1920 1016 (subpatch) 0;
#X floatatom 2 2 0 0 0 0 - - -;
#X obj 495 625 *~;
#X obj 618 552 line~;
#X floatatom 618 289 0 0 0 0 - - -;
#X obj 618 526 pack 0 200;
#X obj 618 263 r window;
#X obj 495 310 exp;
#X floatatom 495 336 6 0 0 0 - - -;
#X obj 495 426 /;
#X obj 543 360 * 0.001;
#X obj 717 613 line~;
#X obj 717 588 pack 0 200;
#X floatatom 717 537 0 0 0 0 - - -;
#X obj 717 511 r delay;
#X obj 495 651 +~;
#X obj 432 677 cos~;
#X obj 432 704 *~;
#X obj 573 748 +~;
#X obj 559 554 wrap~;
#X obj 654 608 *~;
#X obj 654 660 +~;
#X obj 591 687 cos~;
#X obj 591 714 *~;
#X obj 543 387 t b f;
#X floatatom 495 452 6 0 0 0 - - -;
#X obj 559 527 +~ 0.5;
#X obj 432 625 -~ 0.5;
#X obj 432 651 *~ 0.5;
#X obj 591 607 -~ 0.5;
#X obj 591 659 *~ 0.5;
#X obj 495 363 - 1;
#X obj 495 284 * 0.05776;
#X obj 495 389 * -1;
#X text 448 330 speed;
#X text 441 344 change;
#X text 423 443 tape head;
#X obj 495 483 phasor~;
#X obj 717 564 max 1.5;
#X text 720 470 delay;
#X text 717 488 (msec);
#X obj 618 316 max 1;
#X text 423 456 rotation freq, f 9;
#X text 651 289 <= window (msec);
#X text 386 239 transposition;
#X text 385 252 (halftones) =>;
#X obj 495 677 vd~ Pitchshift;
#X obj 654 689 vd~ Pitchshift;
#X obj 575 823 outlet~;
#X obj 488 35 loadbang;
#X msg 488 59 -12;
#X connect 0 0 31 0;
#X connect 1 0 14 0;
#X connect 2 0 1 1;
#X connect 2 0 19 1;
#X connect 3 0 40 0;
#X connect 4 0 2 0;
#X connect 5 0 3 0;
#X connect 6 0 7 0;
#X connect 7 0 30 0;
#X connect 8 0 24 0;
#X connect 9 0 23 0;
#X connect 10 0 14 1;
#X connect 10 0 20 1;
#X connect 11 0 10 0;
#X connect 12 0 37 0;
#X connect 13 0 12 0;
#X connect 14 0 45 0;
#X connect 15 0 16 0;
#X connect 16 0 17 0;
#X connect 17 0 47 0;
#X connect 18 0 19 0;
#X connect 18 0 28 0;
#X connect 19 0 20 0;
#X connect 20 0 46 0;
#X connect 21 0 22 0;
#X connect 22 0 17 1;
#X connect 23 0 8 0;
#X connect 23 1 8 1;
#X connect 24 0 36 0;
#X connect 25 0 18 0;
#X connect 26 0 27 0;
#X connect 27 0 15 0;
#X connect 28 0 29 0;
#X connect 29 0 21 0;
#X connect 30 0 32 0;
#X connect 31 0 6 0;
#X connect 32 0 8 0;
#X connect 36 0 1 0;
#X connect 36 0 26 0;
#X connect 36 0 25 0;
#X connect 37 0 11 0;
#X connect 40 0 9 0;
#X connect 40 0 4 0;
#X connect 45 0 16 1;
#X connect 46 0 22 1;
#X connect 48 0 49 0;
#X connect 49 0 0 0;
#X coords 0 1 100 -1 29 96 1 0 0;
#X restore 76 496 graph;
#X obj 73 61 loadbang;
#X msg 73 87 \; window 100 \; delay 1 \; pd dsp 1;
#N canvas -11 -11 1920 1016 (subpatch) 0;
#X floatatom 2 2 0 0 0 0 - - -;
#X obj 495 625 *~;
#X obj 618 552 line~;
#X floatatom 618 289 0 0 0 0 - - -;
#X obj 618 526 pack 0 200;
#X obj 618 263 r window;
#X obj 495 310 exp;
#X floatatom 495 336 6 0 0 0 - - -;
#X obj 495 426 /;
#X obj 543 360 * 0.001;
#X obj 717 613 line~;
#X obj 717 588 pack 0 200;
#X floatatom 717 537 0 0 0 0 - - -;
#X obj 717 511 r delay;
#X obj 495 651 +~;
#X obj 432 677 cos~;
#X obj 432 704 *~;
#X obj 573 748 +~;
#X obj 559 554 wrap~;
#X obj 654 608 *~;
#X obj 654 660 +~;
#X obj 591 687 cos~;
#X obj 591 714 *~;
#X obj 543 387 t b f;
#X floatatom 495 452 6 0 0 0 - - -;
#X obj 559 527 +~ 0.5;
#X obj 432 625 -~ 0.5;
#X obj 432 651 *~ 0.5;
#X obj 591 607 -~ 0.5;
#X obj 591 659 *~ 0.5;
#X obj 495 363 - 1;
#X obj 495 284 * 0.05776;
#X obj 495 389 * -1;
#X text 448 330 speed;
#X text 441 344 change;
#X text 423 443 tape head;
#X obj 495 483 phasor~;
#X obj 717 564 max 1.5;
#X text 720 470 delay;
#X text 717 488 (msec);
#X obj 618 316 max 1;
#X text 423 456 rotation freq, f 9;
#X text 651 289 <= window (msec);
#X text 386 239 transposition;
#X text 385 252 (halftones) =>;
#X obj 495 677 vd~ Pitchshift;
#X obj 654 689 vd~ Pitchshift;
#X obj 575 823 outlet~;
#X obj 488 35 loadbang;
#X msg 488 59 2;
#X connect 0 0 31 0;
#X connect 1 0 14 0;
#X connect 2 0 1 1;
#X connect 2 0 19 1;
#X connect 3 0 40 0;
#X connect 4 0 2 0;
#X connect 5 0 3 0;
#X connect 6 0 7 0;
#X connect 7 0 30 0;
#X connect 8 0 24 0;
#X connect 9 0 23 0;
#X connect 10 0 14 1;
#X connect 10 0 20 1;
#X connect 11 0 10 0;
#X connect 12 0 37 0;
#X connect 13 0 12 0;
#X connect 14 0 45 0;
#X connect 15 0 16 0;
#X connect 16 0 17 0;
#X connect 17 0 47 0;
#X connect 18 0 19 0;
#X connect 18 0 28 0;
#X connect 19 0 20 0;
#X connect 20 0 46 0;
#X connect 21 0 22 0;
#X connect 22 0 17 1;
#X connect 23 0 8 0;
#X connect 23 1 8 1;
#X connect 24 0 36 0;
#X connect 25 0 18 0;
#X connect 26 0 27 0;
#X connect 27 0 15 0;
#X connect 28 0 29 0;
#X connect 29 0 21 0;
#X connect 30 0 32 0;
#X connect 31 0 6 0;
#X connect 32 0 8 0;
#X connect 36 0 1 0;
#X connect 36 0 26 0;
#X connect 36 0 25 0;
#X connect 37 0 11 0;
#X connect 40 0 9 0;
#X connect 40 0 4 0;
#X connect 45 0 16 1;
#X connect 46 0 22 1;
#X connect 48 0 49 0;
#X connect 49 0 0 0;
#X coords 0 1 100 -1 29 96 1 0 0;
#X restore 247 496 graph;
#N canvas -11 -11 1920 1016 (subpatch) 0;
#X floatatom 2 2 0 0 0 0 - - -;
#X obj 495 625 *~;
#X obj 618 552 line~;
#X floatatom 618 289 0 0 0 0 - - -;
#X obj 618 526 pack 0 200;
#X obj 618 263 r window;
#X obj 495 310 exp;
#X floatatom 495 336 6 0 0 0 - - -;
#X obj 495 426 /;
#X obj 543 360 * 0.001;
#X obj 717 613 line~;
#X obj 717 588 pack 0 200;
#X floatatom 717 537 0 0 0 0 - - -;
#X obj 717 511 r delay;
#X obj 495 651 +~;
#X obj 432 677 cos~;
#X obj 432 704 *~;
#X obj 573 748 +~;
#X obj 559 554 wrap~;
#X obj 654 608 *~;
#X obj 654 660 +~;
#X obj 591 687 cos~;
#X obj 591 714 *~;
#X obj 543 387 t b f;
#X floatatom 495 452 6 0 0 0 - - -;
#X obj 559 527 +~ 0.5;
#X obj 432 625 -~ 0.5;
#X obj 432 651 *~ 0.5;
#X obj 591 607 -~ 0.5;
#X obj 591 659 *~ 0.5;
#X obj 495 363 - 1;
#X obj 495 284 * 0.05776;
#X obj 495 389 * -1;
#X text 448 330 speed;
#X text 441 344 change;
#X text 423 443 tape head;
#X obj 495 483 phasor~;
#X obj 717 564 max 1.5;
#X text 720 470 delay;
#X text 717 488 (msec);
#X obj 618 316 max 1;
#X text 423 456 rotation freq, f 9;
#X text 651 289 <= window (msec);
#X text 386 239 transposition;
#X text 385 252 (halftones) =>;
#X obj 495 677 vd~ Pitchshift;
#X obj 654 689 vd~ Pitchshift;
#X obj 575 823 outlet~;
#X obj 488 35 loadbang;
#X msg 488 59 3;
#X connect 0 0 31 0;
#X connect 1 0 14 0;
#X connect 2 0 1 1;
#X connect 2 0 19 1;
#X connect 3 0 40 0;
#X connect 4 0 2 0;
#X connect 5 0 3 0;
#X connect 6 0 7 0;
#X connect 7 0 30 0;
#X connect 8 0 24 0;
#X connect 9 0 23 0;
#X connect 10 0 14 1;
#X connect 10 0 20 1;
#X connect 11 0 10 0;
#X connect 12 0 37 0;
#X connect 13 0 12 0;
#X connect 14 0 45 0;
#X connect 15 0 16 0;
#X connect 16 0 17 0;
#X connect 17 0 47 0;
#X connect 18 0 19 0;
#X connect 18 0 28 0;
#X connect 19 0 20 0;
#X connect 20 0 46 0;
#X connect 21 0 22 0;
#X connect 22 0 17 1;
#X connect 23 0 8 0;
#X connect 23 1 8 1;
#X connect 24 0 36 0;
#X connect 25 0 18 0;
#X connect 26 0 27 0;
#X connect 27 0 15 0;
#X connect 28 0 29 0;
#X connect 29 0 21 0;
#X connect 30 0 32 0;
#X connect 31 0 6 0;
#X connect 32 0 8 0;
#X connect 36 0 1 0;
#X connect 36 0 26 0;
#X connect 36 0 25 0;
#X connect 37 0 11 0;
#X connect 40 0 9 0;
#X connect 40 0 4 0;
#X connect 45 0 16 1;
#X connect 46 0 22 1;
#X connect 48 0 49 0;
#X connect 49 0 0 0;
#X coords 0 1 100 -1 29 96 1 0 0;
#X restore 287 496 graph;
#N canvas -11 -11 1920 1016 (subpatch) 0;
#X floatatom 2 2 0 0 0 0 - - -;
#X obj 495 625 *~;
#X obj 618 552 line~;
#X floatatom 618 289 0 0 0 0 - - -;
#X obj 618 526 pack 0 200;
#X obj 618 263 r window;
#X obj 495 310 exp;
#X floatatom 495 336 6 0 0 0 - - -;
#X obj 495 426 /;
#X obj 543 360 * 0.001;
#X obj 717 613 line~;
#X obj 717 588 pack 0 200;
#X floatatom 717 537 0 0 0 0 - - -;
#X obj 717 511 r delay;
#X obj 495 651 +~;
#X obj 432 677 cos~;
#X obj 432 704 *~;
#X obj 573 748 +~;
#X obj 559 554 wrap~;
#X obj 654 608 *~;
#X obj 654 660 +~;
#X obj 591 687 cos~;
#X obj 591 714 *~;
#X obj 543 387 t b f;
#X floatatom 495 452 6 0 0 0 - - -;
#X obj 559 527 +~ 0.5;
#X obj 432 625 -~ 0.5;
#X obj 432 651 *~ 0.5;
#X obj 591 607 -~ 0.5;
#X obj 591 659 *~ 0.5;
#X obj 495 363 - 1;
#X obj 495 284 * 0.05776;
#X obj 495 389 * -1;
#X text 448 330 speed;
#X text 441 344 change;
#X text 423 443 tape head;
#X obj 495 483 phasor~;
#X obj 717 564 max 1.5;
#X text 720 470 delay;
#X text 717 488 (msec);
#X obj 618 316 max 1;
#X text 423 456 rotation freq, f 9;
#X text 651 289 <= window (msec);
#X text 386 239 transposition;
#X text 385 252 (halftones) =>;
#X obj 495 677 vd~ Pitchshift;
#X obj 654 689 vd~ Pitchshift;
#X obj 575 823 outlet~;
#X obj 488 35 loadbang;
#X msg 488 59 5;
#X connect 0 0 31 0;
#X connect 1 0 14 0;
#X connect 2 0 1 1;
#X connect 2 0 19 1;
#X connect 3 0 40 0;
#X connect 4 0 2 0;
#X connect 5 0 3 0;
#X connect 6 0 7 0;
#X connect 7 0 30 0;
#X connect 8 0 24 0;
#X connect 9 0 23 0;
#X connect 10 0 14 1;
#X connect 10 0 20 1;
#X connect 11 0 10 0;
#X connect 12 0 37 0;
#X connect 13 0 12 0;
#X connect 14 0 45 0;
#X connect 15 0 16 0;
#X connect 16 0 17 0;
#X connect 17 0 47 0;
#X connect 18 0 19 0;
#X connect 18 0 28 0;
#X connect 19 0 20 0;
#X connect 20 0 46 0;
#X connect 21 0 22 0;
#X connect 22 0 17 1;
#X connect 23 0 8 0;
#X connect 23 1 8 1;
#X connect 24 0 36 0;
#X connect 25 0 18 0;
#X connect 26 0 27 0;
#X connect 27 0 15 0;
#X connect 28 0 29 0;
#X connect 29 0 21 0;
#X connect 30 0 32 0;
#X connect 31 0 6 0;
#X connect 32 0 8 0;
#X connect 36 0 1 0;
#X connect 36 0 26 0;
#X connect 36 0 25 0;
#X connect 37 0 11 0;
#X connect 40 0 9 0;
#X connect 40 0 4 0;
#X connect 45 0 16 1;
#X connect 46 0 22 1;
#X connect 48 0 49 0;
#X connect 49 0 0 0;
#X coords 0 1 100 -1 29 96 1 0 0;
#X restore 368 496 graph;
#N canvas -11 -11 1920 1016 (subpatch) 0;
#X floatatom 2 2 0 0 0 0 - - -;
#X obj 495 625 *~;
#X obj 618 552 line~;
#X floatatom 618 289 0 0 0 0 - - -;
#X obj 618 526 pack 0 200;
#X obj 618 263 r window;
#X obj 495 310 exp;
#X floatatom 495 336 6 0 0 0 - - -;
#X obj 495 426 /;
#X obj 543 360 * 0.001;
#X obj 717 613 line~;
#X obj 717 588 pack 0 200;
#X floatatom 717 537 0 0 0 0 - - -;
#X obj 717 511 r delay;
#X obj 495 651 +~;
#X obj 432 677 cos~;
#X obj 432 704 *~;
#X obj 573 748 +~;
#X obj 559 554 wrap~;
#X obj 654 608 *~;
#X obj 654 660 +~;
#X obj 591 687 cos~;
#X obj 591 714 *~;
#X obj 543 387 t b f;
#X floatatom 495 452 6 0 0 0 - - -;
#X obj 559 527 +~ 0.5;
#X obj 432 625 -~ 0.5;
#X obj 432 651 *~ 0.5;
#X obj 591 607 -~ 0.5;
#X obj 591 659 *~ 0.5;
#X obj 495 363 - 1;
#X obj 495 284 * 0.05776;
#X obj 495 389 * -1;
#X text 448 330 speed;
#X text 441 344 change;
#X text 423 443 tape head;
#X obj 495 483 phasor~;
#X obj 717 564 max 1.5;
#X text 720 470 delay;
#X text 717 488 (msec);
#X obj 618 316 max 1;
#X text 423 456 rotation freq, f 9;
#X text 651 289 <= window (msec);
#X text 386 239 transposition;
#X text 385 252 (halftones) =>;
#X obj 495 677 vd~ Pitchshift;
#X obj 654 689 vd~ Pitchshift;
#X obj 575 823 outlet~;
#X obj 488 35 loadbang;
#X msg 488 59 6;
#X connect 0 0 31 0;
#X connect 1 0 14 0;
#X connect 2 0 1 1;
#X connect 2 0 19 1;
#X connect 3 0 40 0;
#X connect 4 0 2 0;
#X connect 5 0 3 0;
#X connect 6 0 7 0;
#X connect 7 0 30 0;
#X connect 8 0 24 0;
#X connect 9 0 23 0;
#X connect 10 0 14 1;
#X connect 10 0 20 1;
#X connect 11 0 10 0;
#X connect 12 0 37 0;
#X connect 13 0 12 0;
#X connect 14 0 45 0;
#X connect 15 0 16 0;
#X connect 16 0 17 0;
#X connect 17 0 47 0;
#X connect 18 0 19 0;
#X connect 18 0 28 0;
#X connect 19 0 20 0;
#X connect 20 0 46 0;
#X connect 21 0 22 0;
#X connect 22 0 17 1;
#X connect 23 0 8 0;
#X connect 23 1 8 1;
#X connect 24 0 36 0;
#X connect 25 0 18 0;
#X connect 26 0 27 0;
#X connect 27 0 15 0;
#X connect 28 0 29 0;
#X connect 29 0 21 0;
#X connect 30 0 32 0;
#X connect 31 0 6 0;
#X connect 32 0 8 0;
#X connect 36 0 1 0;
#X connect 36 0 26 0;
#X connect 36 0 25 0;
#X connect 37 0 11 0;
#X connect 40 0 9 0;
#X connect 40 0 4 0;
#X connect 45 0 16 1;
#X connect 46 0 22 1;
#X connect 48 0 49 0;
#X connect 49 0 0 0;
#X coords 0 1 100 -1 29 96 1 0 0;
#X restore 409 496 graph;
#N canvas -11 -11 1920 1016 (subpatch) 0;
#X obj 719 138 loadbang;
#X floatatom 2 2 0 0 0 0 - - -;
#X obj 495 625 *~;
#X obj 618 552 line~;
#X floatatom 618 289 0 0 0 0 - - -;
#X obj 618 526 pack 0 200;
#X obj 618 263 r window;
#X obj 495 310 exp;
#X floatatom 495 336 6 0 0 0 - - -;
#X obj 495 426 /;
#X obj 543 360 * 0.001;
#X obj 717 613 line~;
#X obj 717 588 pack 0 200;
#X floatatom 717 537 0 0 0 0 - - -;
#X obj 717 511 r delay;
#X obj 495 651 +~;
#X obj 432 677 cos~;
#X obj 432 704 *~;
#X obj 573 748 +~;
#X obj 559 554 wrap~;
#X obj 654 608 *~;
#X obj 654 660 +~;
#X obj 591 687 cos~;
#X obj 591 714 *~;
#X obj 543 387 t b f;
#X floatatom 495 452 6 0 0 0 - - -;
#X obj 559 527 +~ 0.5;
#X obj 432 625 -~ 0.5;
#X obj 432 651 *~ 0.5;
#X obj 591 607 -~ 0.5;
#X obj 591 659 *~ 0.5;
#X obj 495 363 - 1;
#X obj 495 284 * 0.05776;
#X obj 495 389 * -1;
#X text 448 330 speed;
#X text 441 344 change;
#X text 423 443 tape head;
#X obj 495 483 phasor~;
#X obj 717 564 max 1.5;
#X text 720 470 delay;
#X text 717 488 (msec);
#X obj 618 316 max 1;
#X text 423 456 rotation freq, f 9;
#X text 651 289 <= window (msec);
#X text 386 239 transposition;
#X text 385 252 (halftones) =>;
#X obj 495 677 vd~ Pitchshift;
#X obj 654 689 vd~ Pitchshift;
#X obj 575 823 outlet~;
#X msg 719 164 12;
#X connect 0 0 49 0;
#X connect 1 0 32 0;
#X connect 2 0 15 0;
#X connect 3 0 2 1;
#X connect 3 0 20 1;
#X connect 4 0 41 0;
#X connect 5 0 3 0;
#X connect 6 0 4 0;
#X connect 7 0 8 0;
#X connect 8 0 31 0;
#X connect 9 0 25 0;
#X connect 10 0 24 0;
#X connect 11 0 15 1;
#X connect 11 0 21 1;
#X connect 12 0 11 0;
#X connect 13 0 38 0;
#X connect 14 0 13 0;
#X connect 15 0 46 0;
#X connect 16 0 17 0;
#X connect 17 0 18 0;
#X connect 18 0 48 0;
#X connect 19 0 20 0;
#X connect 19 0 29 0;
#X connect 20 0 21 0;
#X connect 21 0 47 0;
#X connect 22 0 23 0;
#X connect 23 0 18 1;
#X connect 24 0 9 0;
#X connect 24 1 9 1;
#X connect 25 0 37 0;
#X connect 26 0 19 0;
#X connect 27 0 28 0;
#X connect 28 0 16 0;
#X connect 29 0 30 0;
#X connect 30 0 22 0;
#X connect 31 0 33 0;
#X connect 32 0 7 0;
#X connect 33 0 9 0;
#X connect 37 0 2 0;
#X connect 37 0 27 0;
#X connect 37 0 26 0;
#X connect 38 0 12 0;
#X connect 41 0 10 0;
#X connect 41 0 5 0;
#X connect 46 0 17 1;
#X connect 47 0 23 1;
#X connect 49 0 1 0;
#X coords 0 1 100 -1 29 96 1 0 0;
#X restore 651 496 graph;
#N canvas -11 -11 1920 1016 (subpatch) 0;
#X floatatom 2 2 0 0 0 0 - - -;
#X obj 495 625 *~;
#X obj 618 552 line~;
#X floatatom 618 289 0 0 0 0 - - -;
#X obj 618 526 pack 0 200;
#X obj 618 263 r window;
#X obj 495 310 exp;
#X floatatom 495 336 6 0 0 0 - - -;
#X obj 495 426 /;
#X obj 543 360 * 0.001;
#X obj 717 613 line~;
#X obj 717 588 pack 0 200;
#X floatatom 717 537 0 0 0 0 - - -;
#X obj 717 511 r delay;
#X obj 495 651 +~;
#X obj 432 677 cos~;
#X obj 432 704 *~;
#X obj 573 748 +~;
#X obj 559 554 wrap~;
#X obj 654 608 *~;
#X obj 654 660 +~;
#X obj 591 687 cos~;
#X obj 591 714 *~;
#X obj 543 387 t b f;
#X floatatom 495 452 6 0 0 0 - - -;
#X obj 559 527 +~ 0.5;
#X obj 432 625 -~ 0.5;
#X obj 432 651 *~ 0.5;
#X obj 591 607 -~ 0.5;
#X obj 591 659 *~ 0.5;
#X obj 495 363 - 1;
#X obj 495 284 * 0.05776;
#X obj 495 389 * -1;
#X text 448 330 speed;
#X text 441 344 change;
#X text 423 443 tape head;
#X obj 495 483 phasor~;
#X obj 717 564 max 1.5;
#X text 720 470 delay;
#X text 717 488 (msec);
#X obj 618 316 max 1;
#X text 423 456 rotation freq, f 9;
#X text 651 289 <= window (msec);
#X text 386 239 transposition;
#X text 385 252 (halftones) =>;
#X obj 495 677 vd~ Pitchshift;
#X obj 654 689 vd~ Pitchshift;
#X obj 575 823 outlet~;
#X obj 488 35 loadbang;
#X msg 488 59 8;
#X connect 0 0 31 0;
#X connect 1 0 14 0;
#X connect 2 0 1 1;
#X connect 2 0 19 1;
#X connect 3 0 40 0;
#X connect 4 0 2 0;
#X connect 5 0 3 0;
#X connect 6 0 7 0;
#X connect 7 0 30 0;
#X connect 8 0 24 0;
#X connect 9 0 23 0;
#X connect 10 0 14 1;
#X connect 10 0 20 1;
#X connect 11 0 10 0;
#X connect 12 0 37 0;
#X connect 13 0 12 0;
#X connect 14 0 45 0;
#X connect 15 0 16 0;
#X connect 16 0 17 0;
#X connect 17 0 47 0;
#X connect 18 0 19 0;
#X connect 18 0 28 0;
#X connect 19 0 20 0;
#X connect 20 0 46 0;
#X connect 21 0 22 0;
#X connect 22 0 17 1;
#X connect 23 0 8 0;
#X connect 23 1 8 1;
#X connect 24 0 36 0;
#X connect 25 0 18 0;
#X connect 26 0 27 0;
#X connect 27 0 15 0;
#X connect 28 0 29 0;
#X connect 29 0 21 0;
#X connect 30 0 32 0;
#X connect 31 0 6 0;
#X connect 32 0 8 0;
#X connect 36 0 1 0;
#X connect 36 0 26 0;
#X connect 36 0 25 0;
#X connect 37 0 11 0;
#X connect 40 0 9 0;
#X connect 40 0 4 0;
#X connect 45 0 16 1;
#X connect 46 0 22 1;
#X connect 48 0 49 0;
#X connect 49 0 0 0;
#X coords 0 1 100 -1 29 96 1 0 0;
#X restore 489 496 graph;
#N canvas -11 -11 1920 1016 (subpatch) 0;
#X floatatom 2 2 0 0 0 0 - - -;
#X obj 495 625 *~;
#X obj 618 552 line~;
#X floatatom 618 289 0 0 0 0 - - -;
#X obj 618 526 pack 0 200;
#X obj 618 263 r window;
#X obj 495 310 exp;
#X floatatom 495 336 6 0 0 0 - - -;
#X obj 495 426 /;
#X obj 543 360 * 0.001;
#X obj 717 613 line~;
#X obj 717 588 pack 0 200;
#X floatatom 717 537 0 0 0 0 - - -;
#X obj 717 511 r delay;
#X obj 495 651 +~;
#X obj 432 677 cos~;
#X obj 432 704 *~;
#X obj 573 748 +~;
#X obj 559 554 wrap~;
#X obj 654 608 *~;
#X obj 654 660 +~;
#X obj 591 687 cos~;
#X obj 591 714 *~;
#X obj 543 387 t b f;
#X floatatom 495 452 6 0 0 0 - - -;
#X obj 559 527 +~ 0.5;
#X obj 432 625 -~ 0.5;
#X obj 432 651 *~ 0.5;
#X obj 591 607 -~ 0.5;
#X obj 591 659 *~ 0.5;
#X obj 495 363 - 1;
#X obj 495 284 * 0.05776;
#X obj 495 389 * -1;
#X text 448 330 speed;
#X text 441 344 change;
#X text 423 443 tape head;
#X obj 495 483 phasor~;
#X obj 717 564 max 1.5;
#X text 720 470 delay;
#X text 717 488 (msec);
#X obj 618 316 max 1;
#X text 423 456 rotation freq, f 9;
#X text 651 289 <= window (msec);
#X text 386 239 transposition;
#X text 385 252 (halftones) =>;
#X obj 495 677 vd~ Pitchshift;
#X obj 654 689 vd~ Pitchshift;
#X obj 575 823 outlet~;
#X obj 488 35 loadbang;
#X msg 488 59 9;
#X connect 0 0 31 0;
#X connect 1 0 14 0;
#X connect 2 0 1 1;
#X connect 2 0 19 1;
#X connect 3 0 40 0;
#X connect 4 0 2 0;
#X connect 5 0 3 0;
#X connect 6 0 7 0;
#X connect 7 0 30 0;
#X connect 8 0 24 0;
#X connect 9 0 23 0;
#X connect 10 0 14 1;
#X connect 10 0 20 1;
#X connect 11 0 10 0;
#X connect 12 0 37 0;
#X connect 13 0 12 0;
#X connect 14 0 45 0;
#X connect 15 0 16 0;
#X connect 16 0 17 0;
#X connect 17 0 47 0;
#X connect 18 0 19 0;
#X connect 18 0 28 0;
#X connect 19 0 20 0;
#X connect 20 0 46 0;
#X connect 21 0 22 0;
#X connect 22 0 17 1;
#X connect 23 0 8 0;
#X connect 23 1 8 1;
#X connect 24 0 36 0;
#X connect 25 0 18 0;
#X connect 26 0 27 0;
#X connect 27 0 15 0;
#X connect 28 0 29 0;
#X connect 29 0 21 0;
#X connect 30 0 32 0;
#X connect 31 0 6 0;
#X connect 32 0 8 0;
#X connect 36 0 1 0;
#X connect 36 0 26 0;
#X connect 36 0 25 0;
#X connect 37 0 11 0;
#X connect 40 0 9 0;
#X connect 40 0 4 0;
#X connect 45 0 16 1;
#X connect 46 0 22 1;
#X connect 48 0 49 0;
#X connect 49 0 0 0;
#X coords 0 1 100 -1 29 96 1 0 0;
#X restore 529 496 graph;
#N canvas -11 -11 1920 1016 (subpatch) 0;
#X floatatom 2 2 0 0 0 0 - - -;
#X obj 495 625 *~;
#X obj 618 552 line~;
#X floatatom 618 289 0 0 0 0 - - -;
#X obj 618 526 pack 0 200;
#X obj 618 263 r window;
#X obj 495 310 exp;
#X floatatom 495 336 6 0 0 0 - - -;
#X obj 495 426 /;
#X obj 543 360 * 0.001;
#X obj 717 613 line~;
#X obj 717 588 pack 0 200;
#X floatatom 717 537 0 0 0 0 - - -;
#X obj 717 511 r delay;
#X obj 495 651 +~;
#X obj 432 677 cos~;
#X obj 432 704 *~;
#X obj 573 748 +~;
#X obj 559 554 wrap~;
#X obj 654 608 *~;
#X obj 654 660 +~;
#X obj 591 687 cos~;
#X obj 591 714 *~;
#X obj 543 387 t b f;
#X floatatom 495 452 6 0 0 0 - - -;
#X obj 559 527 +~ 0.5;
#X obj 432 625 -~ 0.5;
#X obj 432 651 *~ 0.5;
#X obj 591 607 -~ 0.5;
#X obj 591 659 *~ 0.5;
#X obj 495 363 - 1;
#X obj 495 284 * 0.05776;
#X obj 495 389 * -1;
#X text 448 330 speed;
#X text 441 344 change;
#X text 423 443 tape head;
#X obj 495 483 phasor~;
#X obj 717 564 max 1.5;
#X text 720 470 delay;
#X text 717 488 (msec);
#X obj 618 316 max 1;
#X text 423 456 rotation freq, f 9;
#X text 651 289 <= window (msec);
#X text 386 239 transposition;
#X text 385 252 (halftones) =>;
#X obj 495 677 vd~ Pitchshift;
#X obj 654 689 vd~ Pitchshift;
#X obj 575 823 outlet~;
#X obj 488 35 loadbang;
#X msg 488 59 10;
#X connect 0 0 31 0;
#X connect 1 0 14 0;
#X connect 2 0 1 1;
#X connect 2 0 19 1;
#X connect 3 0 40 0;
#X connect 4 0 2 0;
#X connect 5 0 3 0;
#X connect 6 0 7 0;
#X connect 7 0 30 0;
#X connect 8 0 24 0;
#X connect 9 0 23 0;
#X connect 10 0 14 1;
#X connect 10 0 20 1;
#X connect 11 0 10 0;
#X connect 12 0 37 0;
#X connect 13 0 12 0;
#X connect 14 0 45 0;
#X connect 15 0 16 0;
#X connect 16 0 17 0;
#X connect 17 0 47 0;
#X connect 18 0 19 0;
#X connect 18 0 28 0;
#X connect 19 0 20 0;
#X connect 20 0 46 0;
#X connect 21 0 22 0;
#X connect 22 0 17 1;
#X connect 23 0 8 0;
#X connect 23 1 8 1;
#X connect 24 0 36 0;
#X connect 25 0 18 0;
#X connect 26 0 27 0;
#X connect 27 0 15 0;
#X connect 28 0 29 0;
#X connect 29 0 21 0;
#X connect 30 0 32 0;
#X connect 31 0 6 0;
#X connect 32 0 8 0;
#X connect 36 0 1 0;
#X connect 36 0 26 0;
#X connect 36 0 25 0;
#X connect 37 0 11 0;
#X connect 40 0 9 0;
#X connect 40 0 4 0;
#X connect 45 0 16 1;
#X connect 46 0 22 1;
#X connect 48 0 49 0;
#X connect 49 0 0 0;
#X coords 0 1 100 -1 29 96 1 0 0;
#X restore 569 496 graph;
#N canvas -11 -11 1920 1016 (subpatch) 0;
#X floatatom 2 2 0 0 0 0 - - -;
#X obj 495 625 *~;
#X obj 618 552 line~;
#X floatatom 618 289 0 0 0 0 - - -;
#X obj 618 526 pack 0 200;
#X obj 618 263 r window;
#X obj 495 310 exp;
#X floatatom 495 336 6 0 0 0 - - -;
#X obj 495 426 /;
#X obj 543 360 * 0.001;
#X obj 717 613 line~;
#X obj 717 588 pack 0 200;
#X floatatom 717 537 0 0 0 0 - - -;
#X obj 717 511 r delay;
#X obj 495 651 +~;
#X obj 432 677 cos~;
#X obj 432 704 *~;
#X obj 573 748 +~;
#X obj 559 554 wrap~;
#X obj 654 608 *~;
#X obj 654 660 +~;
#X obj 591 687 cos~;
#X obj 591 714 *~;
#X obj 543 387 t b f;
#X floatatom 495 452 6 0 0 0 - - -;
#X obj 559 527 +~ 0.5;
#X obj 432 625 -~ 0.5;
#X obj 432 651 *~ 0.5;
#X obj 591 607 -~ 0.5;
#X obj 591 659 *~ 0.5;
#X obj 495 363 - 1;
#X obj 495 284 * 0.05776;
#X obj 495 389 * -1;
#X text 448 330 speed;
#X text 441 344 change;
#X text 423 443 tape head;
#X obj 495 483 phasor~;
#X obj 717 564 max 1.5;
#X text 720 470 delay;
#X text 717 488 (msec);
#X obj 618 316 max 1;
#X text 423 456 rotation freq, f 9;
#X text 651 289 <= window (msec);
#X text 386 239 transposition;
#X text 385 252 (halftones) =>;
#X obj 495 677 vd~ Pitchshift;
#X obj 654 689 vd~ Pitchshift;
#X obj 575 823 outlet~;
#X obj 488 35 loadbang;
#X msg 488 59 11;
#X connect 0 0 31 0;
#X connect 1 0 14 0;
#X connect 2 0 1 1;
#X connect 2 0 19 1;
#X connect 3 0 40 0;
#X connect 4 0 2 0;
#X connect 5 0 3 0;
#X connect 6 0 7 0;
#X connect 7 0 30 0;
#X connect 8 0 24 0;
#X connect 9 0 23 0;
#X connect 10 0 14 1;
#X connect 10 0 20 1;
#X connect 11 0 10 0;
#X connect 12 0 37 0;
#X connect 13 0 12 0;
#X connect 14 0 45 0;
#X connect 15 0 16 0;
#X connect 16 0 17 0;
#X connect 17 0 47 0;
#X connect 18 0 19 0;
#X connect 18 0 28 0;
#X connect 19 0 20 0;
#X connect 20 0 46 0;
#X connect 21 0 22 0;
#X connect 22 0 17 1;
#X connect 23 0 8 0;
#X connect 23 1 8 1;
#X connect 24 0 36 0;
#X connect 25 0 18 0;
#X connect 26 0 27 0;
#X connect 27 0 15 0;
#X connect 28 0 29 0;
#X connect 29 0 21 0;
#X connect 30 0 32 0;
#X connect 31 0 6 0;
#X connect 32 0 8 0;
#X connect 36 0 1 0;
#X connect 36 0 26 0;
#X connect 36 0 25 0;
#X connect 37 0 11 0;
#X connect 40 0 9 0;
#X connect 40 0 4 0;
#X connect 45 0 16 1;
#X connect 46 0 22 1;
#X connect 48 0 49 0;
#X connect 49 0 0 0;
#X coords 0 1 100 -1 29 96 1 0 0;
#X restore 610 496 graph;
#X obj 596 96 - 60;
#X floatatom 596 120 5 0 0 0 - - -;
#X obj 596 72 notein;
#X obj 197 643 *~;
#N canvas -11 -11 1920 1016 (subpatch) 0;
#X floatatom 2 2 0 0 0 0 - - -;
#X obj 495 625 *~;
#X obj 618 552 line~;
#X floatatom 618 289 0 0 0 0 - - -;
#X obj 618 526 pack 0 200;
#X obj 618 263 r window;
#X obj 495 310 exp;
#X floatatom 495 336 6 0 0 0 - - -;
#X obj 495 426 /;
#X obj 543 360 * 0.001;
#X obj 717 613 line~;
#X obj 717 588 pack 0 200;
#X floatatom 717 537 0 0 0 0 - - -;
#X obj 717 511 r delay;
#X obj 495 651 +~;
#X obj 432 677 cos~;
#X obj 432 704 *~;
#X obj 573 748 +~;
#X obj 559 554 wrap~;
#X obj 654 608 *~;
#X obj 654 660 +~;
#X obj 591 687 cos~;
#X obj 591 714 *~;
#X obj 543 387 t b f;
#X floatatom 495 452 6 0 0 0 - - -;
#X obj 559 527 +~ 0.5;
#X obj 432 625 -~ 0.5;
#X obj 432 651 *~ 0.5;
#X obj 591 607 -~ 0.5;
#X obj 591 659 *~ 0.5;
#X obj 495 363 - 1;
#X obj 495 284 * 0.05776;
#X obj 495 389 * -1;
#X text 448 330 speed;
#X text 441 344 change;
#X text 423 443 tape head;
#X obj 495 483 phasor~;
#X obj 717 564 max 1.5;
#X text 720 470 delay;
#X text 717 488 (msec);
#X obj 618 316 max 1;
#X text 423 456 rotation freq, f 9;
#X text 651 289 <= window (msec);
#X text 386 239 transposition;
#X text 385 252 (halftones) =>;
#X obj 495 677 vd~ Pitchshift;
#X obj 654 689 vd~ Pitchshift;
#X obj 575 823 outlet~;
#X obj 488 35 loadbang;
#X msg 488 59 1;
#X connect 0 0 31 0;
#X connect 1 0 14 0;
#X connect 2 0 1 1;
#X connect 2 0 19 1;
#X connect 3 0 40 0;
#X connect 4 0 2 0;
#X connect 5 0 3 0;
#X connect 6 0 7 0;
#X connect 7 0 30 0;
#X connect 8 0 24 0;
#X connect 9 0 23 0;
#X connect 10 0 14 1;
#X connect 10 0 20 1;
#X connect 11 0 10 0;
#X connect 12 0 37 0;
#X connect 13 0 12 0;
#X connect 14 0 45 0;
#X connect 15 0 16 0;
#X connect 16 0 17 0;
#X connect 17 0 47 0;
#X connect 18 0 19 0;
#X connect 18 0 28 0;
#X connect 19 0 20 0;
#X connect 20 0 46 0;
#X connect 21 0 22 0;
#X connect 22 0 17 1;
#X connect 23 0 8 0;
#X connect 23 1 8 1;
#X connect 24 0 36 0;
#X connect 25 0 18 0;
#X connect 26 0 27 0;
#X connect 27 0 15 0;
#X connect 28 0 29 0;
#X connect 29 0 21 0;
#X connect 30 0 32 0;
#X connect 31 0 6 0;
#X connect 32 0 8 0;
#X connect 36 0 1 0;
#X connect 36 0 26 0;
#X connect 36 0 25 0;
#X connect 37 0 11 0;
#X connect 40 0 9 0;
#X connect 40 0 4 0;
#X connect 45 0 16 1;
#X connect 46 0 22 1;
#X connect 48 0 49 0;
#X connect 49 0 0 0;
#X coords 0 1 100 -1 29 96 1 0 0;
#X restore 197 496 graph;
#X obj 576 318 tgl 32 0 empty empty empty 17 7 0 10 -228856 -1 -1 0
1;
#X obj 596 144 sel -12 0 1 2 3 4 5 6 7 8 9 10 11 12 14;
#X text 639 120 midi control;
#X connect 0 0 19 1;
#X connect 1 0 20 1;
#X connect 2 0 21 1;
#X connect 3 0 22 1;
#X connect 4 0 23 1;
#X connect 5 0 24 1;
#X connect 6 0 25 1;
#X connect 7 0 26 1;
#X connect 8 0 15 1;
#X connect 9 0 16 1;
#X connect 10 0 17 1;
#X connect 11 0 18 1;
#X connect 12 0 27 1;
#X connect 13 0 14 1;
#X connect 14 0 28 0;
#X connect 15 0 28 0;
#X connect 16 0 28 0;
#X connect 17 0 28 0;
#X connect 18 0 28 0;
#X connect 19 0 28 0;
#X connect 20 0 28 0;
#X connect 21 0 28 0;
#X connect 22 0 28 0;
#X connect 23 0 28 0;
#X connect 24 0 28 0;
#X connect 25 0 28 0;
#X connect 26 0 28 0;
#X connect 27 0 28 0;
#X connect 28 0 32 0;
#X connect 28 0 32 1;
#X connect 29 0 18 0;
#X connect 31 0 30 0;
#X connect 31 0 15 0;
#X connect 31 1 30 0;
#X connect 31 1 15 0;
#X connect 33 0 21 0;
#X connect 34 0 14 0;
#X connect 35 0 27 0;
#X connect 36 0 37 0;
#X connect 38 0 16 0;
#X connect 39 0 17 0;
#X connect 40 0 19 0;
#X connect 41 0 20 0;
#X connect 42 0 26 0;
#X connect 43 0 22 0;
#X connect 44 0 23 0;
#X connect 45 0 24 0;
#X connect 46 0 25 0;
#X connect 47 0 48 0;
#X connect 48 0 53 0;
#X connect 49 0 47 0;
#X connect 50 0 28 0;
#X connect 51 0 50 0;
#X connect 52 0 50 1;
#X connect 53 0 12 0;
#X connect 53 1 8 0;
#X connect 53 2 52 0;
#X connect 53 3 9 0;
#X connect 53 4 10 0;
#X connect 53 5 11 0;
#X connect 53 6 0 0;
#X connect 53 7 1 0;
#X connect 53 8 2 0;
#X connect 53 9 3 0;
#X connect 53 10 4 0;
#X connect 53 11 5 0;
#X connect 53 12 6 0;
#X connect 53 13 7 0;
#X connect 53 14 13 0;
