#N canvas -11 -11 1920 1016 12;
#X obj 572 781 dac~;
#X obj 533 574 phasor~;
#X obj 573 224 adc~;
#X floatatom 590 470 5 0 0 0 - - -;
#N canvas 0 50 450 250 (subpatch) 0;
#X array SAMPLE 1.12804e+007 float 0;
#X coords 0 0.2 1.12804e+007 -0.2 200 200 1 0 0;
#X restore 1064 627 graph;
#X floatatom 1046 468 5 0 10 0 - - -;
#X obj 41 873 loadbang;
#X msg 41 895 \; pd dsp 1;
#X obj 549 137 bng 32 250 50 0 empty hit empty 0 0 0 22 -232576 -1
-1;
#X obj 572 632 *~;
#X obj 590 552 * 48000;
#X obj 613 704 tgl 32 0 empty empty empty 17 7 0 10 -232576 -1 -1 0
1;
#X msg 533 488 1;
#X obj 533 527 /;
#X obj 571 736 *~;
#X obj 1067 507 * 48000;
#X obj 1048 145 bng 15 250 50 0 empty empty empty 17 7 0 10 -232576
-1 -1;
#X obj 1048 169 openpanel;
#X obj 1048 217 soundfiler;
#X floatatom 1048 241 5 0 0 0 - - -;
#X obj 549 267 tabwrite~ SAMPLE;
#X obj 571 656 tabread~ SAMPLE;
#X obj 1067 542 array size SAMPLE;
#X msg 1048 193 read -resize \$1 SAMPLE;
#X text 112 897 audio ON (console), f 10;
#N canvas -11 -11 1920 1016 (subpatch) 0;
#X obj 6 149 credits;
#X obj 722 314 1;
#X msg 722 347 2;
#X floatatom 720 381 5 0 0 0 - - -;
#X text 666 314 ctrl 1;
#X text 666 347 ctrl 2;
#X text 666 381 ctrl 3;
#X obj 1440 268 *;
#X obj 1440 364 *~;
#X obj 1440 303 *;
#X obj 1440 329 *;
#X text 1315 690 aide > navigateur d'aide > PureData/;
#X obj 1218 669 guide html;
#X text 1314 669 aide > aide html;
#X obj 1218 691 patch exemple;
#X floatatom 391 659 5 0 0 0 - - -;
#X floatatom 331 659 5 0 0 0 - - -;
#X floatatom 352 742 5 0 0 0 - - -;
#X msg 391 622 1;
#X obj 1218 637 POUR APPROFONDIR;
#X text 664 259 click droit (élement) > aide : informations et exemples
;
#X obj 148 284 CTRL E;
#X text 1472 347 ~ signal audio (continu);
#X text 1479 285 signal numérique;
#X msg 1283 303 objet;
#X text 1212 315 sortie ->;
#X text 1218 294 entré ->;
#X obj 1211 239 BRANCHEMENT;
#X obj 331 592 bng 15 250 50 0 empty empty empty 17 7 0 10 -262144
-1 -1;
#X obj 722 412 bng 15 250 50 0 empty empty empty 17 7 0 10 -262144
-1 -1;
#X text 667 410 ctrl B;
#X text 769 408 boutton : déclencheur;
#X text 766 381 number box : interactible;
#X text 759 346 message box : figé;
#X text 762 317 object box : click droit (vide) > aide = liste;
#X obj 150 528 EXEMPLE : ordre d'operation;
#X obj 442 355 bng 30 250 50 0 empty empty empty 17 7 0 10 -262144
-1 -1;
#X text 171 308 <-> mode performance (interagir);
#X obj 352 698 -;
#X msg 331 622 2;
#X text 675 627 EXERCICE : faire le calcul en interagissant uniquement
avec l'entrée de droite, f 29;
#X text 144 368 EXERCICE : tester les modes sur le boutton;
#X text 200 283 mode edition (selectionner deplacer), f 37;
#X text 658 205 -----------------------------------------------------------------------
, f 72;
#X text 212 690 entré de gauche -> = déclencheur, f 18;
#X text 382 689 <- entré de droite = "inerte", f 18;
#X text 432 659 <- interactible;
#N canvas 1015 180 450 163 (subpatch) 0;
#X floatatom 328 129 5 0 0 0 - - -;
#X floatatom 268 129 5 0 0 0 - - -;
#X floatatom 289 212 5 0 0 0 - - -;
#X msg 328 92 1;
#X obj 268 62 bng 15 250 50 0 empty empty empty 17 7 0 10 -262144 -1
-1;
#X obj 289 168 -;
#X msg 268 92 2;
#X text 7 25 click droite > ouvrir, f 13;
#X text 212 12 déclanche le signal de gauche quand le signal de droite
varie, f 31;
#X text 7 7 SOLUTION :;
#X connect 0 0 5 1;
#X connect 0 0 4 0;
#X connect 1 0 5 0;
#X connect 3 0 0 0;
#X connect 4 0 6 0;
#X connect 5 0 2 0;
#X connect 6 0 1 0;
#X coords 0 1 100 -1 105 57 1 0 0;
#X restore 675 690 graph;
#X text 658 495 -----------------------------------------------------------------------
, f 72;
#X text 1178 205 -----------------------------------------------------------------------
, f 72;
#X text 1178 495 -----------------------------------------------------------------------
, f 72;
#X text 138 205 -----------------------------------------------------------------------
, f 72;
#X text 138 495 -----------------------------------------------------------------------
, f 72;
#X obj 148 234 EDITION / INTERACTION;
#X obj 666 234 TYPES DE BOX;
#X obj 1438 238 TYPES DE SIGNAUX;
#X text 4 7 TUTO BASICS PUREDATA;
#X text 5 26 click droit > ouvrir;
#X text 1216 403 select > sup;
#X obj 1215 371 DEBRANCHER;
#X connect 7 0 9 0;
#X connect 10 0 8 0;
#X connect 15 0 38 1;
#X connect 16 0 38 0;
#X connect 18 0 15 0;
#X connect 28 0 39 0;
#X connect 38 0 17 0;
#X connect 39 0 16 0;
#X coords 0 1 100 -1 155 52 1 0 0;
#X restore 26 195 graph;
#X obj 29 167 ctrl E = mode edition;
#X text 511 101 -----------------------------------------------------
;
#X obj 515 88 ENREGISTRER;
#X obj 1009 87 IMPORTER;
#X obj 513 407 LECTEUR;
#X obj 1009 407 DUREE;
#X obj 1048 264 / 48000;
#X text 594 575 <- va de 0 à 1 à une vitesse donnée;
#X text 25 286 ECHANTILLONAGE = nombre données / seconde fichier >
préférence > parametre audio (ici 48000), f 42;
#X text 1006 101 -----------------------------------------------------
;
#X text 510 421 -----------------------------------------------------
;
#X obj 30 36 TUTO ENREGISTREMENT;
#X text 1006 421 -----------------------------------------------------
;
#X text 1076 89 (.wav uniquement);
#X text 598 629 <- vitesse x distance;
#X text 682 653 <- lit le tableau;
#X text 630 469 <- durée de l'enregistrement (seconde);
#X text 647 711 <- volume on/off;
#X text 607 780 <- sortie de son;
#X text 1063 833 ^ tableau: stock des données;
#X text 1192 544 <- defini la taille du tableau;
#X text 1086 468 <- durée de l'enregistrement (seconde);
#X text 1123 506 <- conversion (echantillonage);
#X text 1068 142 <- importer;
#X text 1120 169 <- cherche un fichier;
#X text 1125 217 <- donne la durée du fichier;
#X text 1087 241 <- taille (echantillon);
#X text 1107 264 <- conversion en seconde;
#X text 584 144 <- enregistrer;
#X text 607 223 <- entré de son;
#X text 669 267 <- entre les données dans le tableau;
#X text 1570 580 EXERCICE : importer un fichier puis lire l'enregistrement
, f 22;
#X text 647 551 <- conversion (echantillonage);
#X text 561 527 <- 1/durée = fréquence;
#X text 1569 419 EXERCICE : definir la durée \, enregistrer le micro
\, lire l'enregistrement, f 22;
#N canvas 769 0 1138 1003 (subpatch) 0;
#X text 7 9 SOLUTION :;
#X text 9 27 click droit > ouvrir;
#X obj 142 488 dac~;
#X obj 103 361 phasor~;
#X floatatom 160 257 5 0 0 0 - - -;
#X floatatom 232 167 5 0 10 0 - - -;
#X obj 142 419 *~;
#X obj 160 339 * 48000;
#X msg 103 275 1;
#X obj 103 314 /;
#X obj 253 206 * 48000;
#X obj 496 187 adc~;
#X obj 442 170 bng 32 250 50 0 empty hit empty 0 0 0 22 -232576 -1
-1;
#X text 230 149 1 definir la durée;
#X text 441 148 2 enregistrer;
#X msg 57 313 0;
#X text 56 294 off;
#N canvas 0 50 450 250 (subpatch) 0;
#X array EX1 96000 float 0;
#X coords 0 0.2 95999 -0.2 200 200 1 0 0;
#X restore 423 309 graph;
#X obj 472 230 tabwrite~ EX1;
#X obj 253 241 array size EX1;
#X obj 141 443 tabread~ EX1;
#X connect 3 0 6 0;
#X connect 4 0 7 0;
#X connect 4 0 9 1;
#X connect 4 0 8 0;
#X connect 5 0 10 0;
#X connect 5 0 4 0;
#X connect 6 0 20 0;
#X connect 7 0 6 1;
#X connect 8 0 9 0;
#X connect 9 0 3 0;
#X connect 10 0 19 0;
#X connect 11 0 18 0;
#X connect 11 1 18 0;
#X connect 12 0 18 0;
#X connect 15 0 3 0;
#X connect 20 0 2 0;
#X connect 20 0 2 1;
#X coords 0 1 100 -1 160 48 1 0 0;
#X restore 1567 488 graph;
#N canvas 769 0 1138 1003 (subpatch) 0;
#X text 7 9 SOLUTION :;
#X text 9 27 click droit > ouvrir;
#X obj 142 598 dac~;
#X obj 103 471 phasor~;
#X floatatom 160 367 5 0 0 0 - - -;
#X floatatom 232 277 5 0 10 0 - - -;
#X obj 142 529 *~;
#X obj 160 449 * 48000;
#X msg 103 385 1;
#X obj 103 424 /;
#X obj 253 316 * 48000;
#X obj 232 46 bng 15 250 50 0 empty empty empty 17 7 0 10 -232576 -1
-1;
#X obj 232 70 openpanel;
#X obj 232 118 soundfiler;
#X floatatom 232 142 5 0 0 0 - - -;
#X obj 232 165 / 48000;
#X text 252 43 <- importer;
#X msg 51 424 0;
#X text 48 405 off;
#N canvas 0 50 450 250 (subpatch) 0;
#X array EX2 1.12804e+007 float 0;
#X coords 0 0.2 1.12804e+007 -0.2 200 200 1 0 0;
#X restore 315 415 graph;
#X obj 253 351 array size EX2;
#X obj 141 553 tabread~ EX2;
#X msg 232 94 read -resize \$1 EX2;
#X connect 3 0 6 0;
#X connect 4 0 7 0;
#X connect 4 0 9 1;
#X connect 4 0 8 0;
#X connect 5 0 10 0;
#X connect 5 0 4 0;
#X connect 6 0 21 0;
#X connect 7 0 6 1;
#X connect 8 0 9 0;
#X connect 9 0 3 0;
#X connect 10 0 20 0;
#X connect 11 0 12 0;
#X connect 12 0 22 0;
#X connect 13 0 14 0;
#X connect 14 0 15 0;
#X connect 15 0 5 0;
#X connect 17 0 3 0;
#X connect 21 0 2 0;
#X connect 21 0 2 1;
#X connect 22 0 13 0;
#X coords 0 1 100 -1 160 48 1 0 0;
#X restore 1568 635 graph;
#N canvas -11 -11 1920 1016 (subpatch) 0;
#X text 7 9 SOLUTION :;
#X text 9 27 click droit > ouvrir;
#X obj 142 598 dac~;
#X obj 103 471 phasor~;
#X floatatom 160 367 5 0 0 0 - - -;
#X floatatom 281 330 5 0 10 0 - - -;
#X obj 142 529 *~;
#X obj 160 449 * 48000;
#X msg 103 385 1;
#X obj 103 424 /;
#X obj 302 369 * 48000;
#X msg 29 452 0;
#X text 26 433 off;
#X floatatom 33 272 5 0 0 0 - - -;
#X text 74 272 en accelerant la fréquence elle devient audible;
#X text 464 269 il est possible de dessiner directement la forme d'onde
dans le tableau;
#N canvas 0 50 450 250 (subpatch) 0;
#X array EX3 48000 float 0;
#X coords 0 0.2 47999 -0.2 200 200 1 0 0;
#X restore 556 386 graph;
#X obj 302 404 array size EX3;
#X msg 283 302 1;
#X obj 141 553 tabread~ EX3;
#X connect 3 0 6 0;
#X connect 4 0 7 0;
#X connect 4 0 9 1;
#X connect 4 0 8 0;
#X connect 5 0 10 0;
#X connect 5 0 4 0;
#X connect 6 0 19 0;
#X connect 7 0 6 1;
#X connect 8 0 9 0;
#X connect 9 0 3 0;
#X connect 10 0 17 0;
#X connect 11 0 3 0;
#X connect 13 0 3 0;
#X connect 18 0 5 0;
#X connect 19 0 2 0;
#X connect 19 0 2 1;
#X coords 0 1 100 -1 160 48 1 0 0;
#X restore 1574 779 graph;
#X text 1569 725 EXERCICE+ DETOURNEMENT: utiliser le lecteur comme
synthétiseur, f 23;
#X connect 1 0 9 0;
#X connect 2 0 20 0;
#X connect 2 1 20 0;
#X connect 3 0 10 0;
#X connect 3 0 13 1;
#X connect 3 0 12 0;
#X connect 5 0 15 0;
#X connect 6 0 7 0;
#X connect 8 0 20 0;
#X connect 9 0 21 0;
#X connect 10 0 9 1;
#X connect 11 0 14 1;
#X connect 12 0 13 0;
#X connect 13 0 1 0;
#X connect 14 0 0 0;
#X connect 14 0 0 1;
#X connect 15 0 22 0;
#X connect 16 0 17 0;
#X connect 17 0 23 0;
#X connect 18 0 19 0;
#X connect 19 0 32 0;
#X connect 21 0 14 0;
#X connect 23 0 18 0;
